<svg width="94" height="47" viewBox="0 0 94 47" fill="none" xmlns="http://www.w3.org/2000/svg">
<path fill-rule="evenodd" clip-rule="evenodd" d="M8.44956 13.0397H3.72568L0 46.0843H46.0381L42.3124 13.0397H37.1901C36.4873 5.72198 30.3218 0 22.8198 0C15.3179 0 9.15236 5.72198 8.44956 13.0397ZM32.5007 13.0397H13.1391C13.8171 8.30034 17.893 4.65718 22.8199 4.65718C27.7467 4.65718 31.8227 8.30034 32.5007 13.0397Z" fill="#FFF4BD"/>
<path d="M22.038 41.5187C20.4285 41.5187 19.0984 41.2839 18.0478 40.8145C16.9971 40.3227 16.2147 39.7192 15.7006 39.0038C15.2088 38.2885 14.9629 37.6067 14.9629 36.9584C14.9629 36.4443 15.097 36.0196 15.3653 35.6842C15.6335 35.3266 16.0135 35.1366 16.5053 35.1142C16.9077 35.0919 17.2207 35.1701 17.4442 35.3489C17.6901 35.5054 17.8577 35.7066 17.9472 35.9525C18.0366 36.1984 18.0813 36.4219 18.0813 36.6231C18.0813 36.8467 18.0478 37.0702 17.9807 37.2937C17.9136 37.5173 17.8242 37.7408 17.7124 37.9644C17.936 38.7244 18.4389 39.2721 19.2213 39.6074C20.0261 39.9427 20.8867 40.1103 21.8032 40.1103C23.3904 40.1103 24.6534 39.6744 25.5923 38.8026C26.5535 37.9308 27.0341 36.6678 27.0341 35.0136C27.0341 34.03 26.8776 33.1023 26.5647 32.2305C26.2517 31.3364 25.6705 30.6099 24.821 30.051C23.9716 29.4922 22.7309 29.2351 21.0991 29.2798C20.9203 29.2798 20.7302 29.291 20.5291 29.3133C20.3279 29.3133 20.1043 29.3245 19.8584 29.3469V27.838C20.1043 27.838 20.339 27.838 20.5626 27.838C20.7861 27.838 21.0097 27.838 21.2332 27.838C22.418 27.838 23.3457 27.5697 24.0163 27.0332C24.6869 26.4967 25.1675 25.8596 25.4581 25.1219C25.7487 24.3843 25.894 23.7025 25.894 23.0765C25.894 22.16 25.7711 21.3441 25.5252 20.6288C25.3017 19.8911 24.8993 19.3211 24.3181 18.9187C23.7369 18.494 22.9321 18.2816 21.9038 18.2816C20.8979 18.2816 20.0373 18.5498 19.3219 19.0863C18.6066 19.6005 18.1595 20.137 17.9807 20.6958C18.1819 20.9194 18.316 21.1429 18.3831 21.3665C18.4725 21.59 18.5172 21.8247 18.5172 22.0706C18.5172 22.2494 18.4613 22.4618 18.3495 22.7077C18.2601 22.9312 18.1036 23.1212 17.8801 23.2777C17.6566 23.4342 17.3548 23.5124 16.9748 23.5124C16.5053 23.5124 16.1477 23.3448 15.9018 23.0095C15.6559 22.6742 15.5329 22.2718 15.5329 21.8024C15.5329 21.1764 15.7788 20.4946 16.2706 19.757C16.7624 18.9969 17.5113 18.3487 18.5172 17.8122C19.5455 17.2533 20.8308 16.9739 22.3733 16.9739C23.5804 16.9739 24.6981 17.1639 25.7264 17.5439C26.7547 17.9239 27.5818 18.5498 28.2077 19.4216C28.8336 20.2711 29.1466 21.4 29.1466 22.8083C29.1466 23.5013 28.9677 24.2054 28.6101 24.9208C28.2747 25.6137 27.7047 26.262 26.9 26.8656C26.1176 27.4691 25.0334 27.9833 23.6475 28.408C25.7711 28.6315 27.4365 29.3133 28.6436 30.4534C29.8731 31.5934 30.4878 33.0353 30.4878 34.7789C30.4878 36.299 30.0854 37.562 29.2807 38.5679C28.4983 39.5515 27.4588 40.2892 26.1623 40.781C24.8881 41.2728 23.5133 41.5187 22.038 41.5187Z" fill="#F4B9B8"/>
<path d="M62.0966 33.3582C62.0649 32.8518 61.9436 32.3718 61.7326 31.9181C61.5216 31.4645 61.2156 31.0952 60.8147 30.8103C60.4138 30.5255 59.9021 30.383 59.2796 30.383C58.6255 30.383 58.1244 30.5677 57.7762 30.9369C57.428 31.3062 57.254 31.7388 57.254 32.2346C57.254 32.6777 57.3806 33.0523 57.6338 33.3582C57.887 33.6537 58.214 33.9174 58.6149 34.1495C59.0264 34.3711 59.459 34.5874 59.9126 34.7984C60.3136 34.9777 60.7145 35.1729 61.1154 35.3839C61.5163 35.5844 61.8803 35.8165 62.2074 36.0802C62.5344 36.344 62.7929 36.6605 62.9828 37.0298C63.1833 37.3885 63.2835 37.8211 63.2835 38.3275C63.2835 38.9078 63.1358 39.4247 62.8404 39.8784C62.5555 40.3321 62.1388 40.6908 61.5902 40.9545C61.0415 41.2077 60.3716 41.3343 59.5803 41.3343C59.1055 41.3343 58.615 41.2658 58.1085 41.1286C57.6021 40.9915 57.1537 40.791 56.7634 40.5272L56.8425 41.2077H56.0196L55.9246 37.8369H56.5418C56.5946 38.7653 56.9163 39.4722 57.5072 39.9575C58.098 40.4323 58.8101 40.6697 59.6436 40.6697C60.0551 40.6697 60.4349 40.5958 60.7831 40.4481C61.1312 40.2899 61.4055 40.063 61.606 39.7676C61.817 39.4722 61.9225 39.1135 61.9225 38.6915C61.9225 38.2167 61.7959 37.8211 61.5427 37.5046C61.2895 37.188 60.9624 36.9137 60.5615 36.6816C60.1606 36.4495 59.7333 36.228 59.2796 36.0169C58.8787 35.8376 58.4831 35.6477 58.0927 35.4472C57.7023 35.2468 57.3436 35.0199 57.0166 34.7667C56.7001 34.503 56.4416 34.1917 56.2411 33.833C56.0512 33.4743 55.9563 33.0417 55.9563 32.5353C55.9563 32.261 56.0037 31.9656 56.0987 31.6491C56.1936 31.3326 56.3572 31.0319 56.5893 30.747C56.8319 30.4516 57.159 30.2142 57.5705 30.0349C57.9925 29.845 58.5253 29.75 59.1688 29.75C59.5698 29.75 60.0182 29.808 60.514 29.9241C61.0204 30.0296 61.4899 30.2406 61.9225 30.5571L61.8592 29.8766H62.6663V33.3582H62.0966Z" fill="#836EC4"/>
<path d="M67.5956 41.3343C67.3529 41.3343 67.105 41.2974 66.8518 41.2236C66.5986 41.1603 66.3612 41.0284 66.1396 40.8279C65.9286 40.6275 65.7598 40.3373 65.6332 39.9575C65.5066 39.5672 65.4433 39.0555 65.4433 38.4224L65.475 33.833L64.2564 33.8488V33.1683C64.5307 33.1578 64.8103 33.0576 65.0952 32.8677C65.38 32.6672 65.6332 32.3982 65.8548 32.0605C66.0869 31.7229 66.2452 31.3537 66.3296 30.9528H66.8676V33.1683H69.5263V33.7855L66.8676 33.8172L66.836 38.2167C66.836 38.6915 66.8729 39.0977 66.9468 39.4353C67.0312 39.7623 67.163 40.0103 67.3424 40.1791C67.5218 40.3479 67.7539 40.4323 68.0387 40.4323C68.3341 40.4323 68.6084 40.3479 68.8616 40.1791C69.1254 40.0103 69.3575 39.7782 69.558 39.4828L69.9853 39.8309C69.7532 40.1791 69.521 40.4534 69.2889 40.6538C69.0674 40.8543 68.8511 41.002 68.6401 41.097C68.4291 41.2025 68.2339 41.2658 68.0545 41.2869C67.8752 41.3185 67.7222 41.3343 67.5956 41.3343Z" fill="#836EC4"/>
<path d="M74.6652 41.3343C73.9267 41.3343 73.2567 41.1655 72.6553 40.8279C72.054 40.4798 71.5739 40.005 71.2152 39.4036C70.867 38.7917 70.693 38.0954 70.693 37.3146C70.693 36.4812 70.867 35.7321 71.2152 35.0674C71.5634 34.4027 72.0381 33.8805 72.6395 33.5007C73.2409 33.1103 73.9161 32.9151 74.6652 32.9151C75.4037 32.9151 76.0737 33.0945 76.675 33.4532C77.2764 33.8014 77.7565 34.2761 78.1152 34.8775C78.4739 35.4789 78.6532 36.1647 78.6532 36.9348C78.6532 37.7472 78.4739 38.491 78.1152 39.1662C77.767 39.8309 77.2922 40.3584 76.6909 40.7488C76.0895 41.1392 75.4143 41.3343 74.6652 41.3343ZM74.7918 40.7013C75.351 40.7013 75.7941 40.5431 76.1211 40.2266C76.4482 39.91 76.6803 39.4986 76.8175 38.9922C76.9652 38.4857 77.039 37.9529 77.039 37.3938C77.039 36.919 76.9916 36.4548 76.8966 36.0011C76.8122 35.5369 76.675 35.1202 76.4851 34.7509C76.2952 34.3711 76.0473 34.0704 75.7413 33.8488C75.4459 33.6273 75.0872 33.5165 74.6652 33.5165C74.1166 33.5165 73.6682 33.6748 73.32 33.9913C72.9719 34.3078 72.7134 34.7192 72.5446 35.2257C72.3863 35.7321 72.3072 36.2754 72.3072 36.8557C72.3072 37.5098 72.3969 38.1323 72.5762 38.7231C72.7556 39.3034 73.0299 39.7782 73.3991 40.1474C73.7684 40.5167 74.2326 40.7013 74.7918 40.7013Z" fill="#836EC4"/>
<path d="M79.9978 40.6064C80.3249 40.6064 80.5517 40.5272 80.6783 40.369C80.8049 40.2002 80.8788 39.9733 80.8999 39.6885C80.921 39.3931 80.9315 39.0555 80.9315 38.6756V35.0674C80.9315 34.8986 80.9315 34.7298 80.9315 34.561C80.9421 34.3922 80.9632 34.2181 80.9948 34.0387C80.8049 34.0493 80.615 34.0598 80.4251 34.0704C80.2457 34.0704 80.0611 34.0757 79.8712 34.0862V33.4374H80.3618C80.8155 33.4374 81.1267 33.3952 81.2955 33.3108C81.4749 33.2158 81.6226 33.1156 81.7386 33.0101H82.1976C82.2187 33.1789 82.2345 33.3899 82.245 33.6431C82.2556 33.8858 82.2661 34.197 82.2767 34.5768C82.4349 34.3131 82.6512 34.0546 82.9255 33.8014C83.1998 33.5482 83.5058 33.3371 83.8434 33.1683C84.1916 32.9995 84.5556 32.9151 84.9354 32.9151C85.2308 32.9151 85.4893 32.9943 85.7108 33.1525C85.9324 33.3108 86.0432 33.564 86.0432 33.9121C86.0432 33.9965 86.0168 34.102 85.964 34.2287C85.9113 34.3447 85.8269 34.4502 85.7108 34.5452C85.5948 34.6296 85.4418 34.6718 85.2519 34.6718C85.0198 34.6612 84.8352 34.5715 84.698 34.4027C84.5608 34.2234 84.5081 34.0176 84.5397 33.7855C84.276 33.775 84.0017 33.8436 83.7168 33.9913C83.4425 34.139 83.184 34.3447 82.9414 34.6085C82.6987 34.8617 82.4824 35.1624 82.2925 35.5105L82.3083 39.4036C82.3083 39.6146 82.3031 39.8045 82.2925 39.9733C82.2925 40.1316 82.2767 40.3004 82.245 40.4798C82.4138 40.4692 82.5774 40.4639 82.7356 40.4639C82.9044 40.4534 83.0732 40.4428 83.242 40.4323V41.0811H79.9978V40.6064Z" fill="#836EC4"/>
<path d="M90.5658 41.3343C89.8379 41.3343 89.1785 41.1655 88.5876 40.8279C88.0074 40.4798 87.5484 39.9944 87.2108 39.372C86.8732 38.7389 86.7044 37.9951 86.7044 37.1406C86.7044 36.402 86.8679 35.711 87.195 35.0674C87.5326 34.4238 88.0021 33.9069 88.6035 33.5165C89.2048 33.1156 89.9012 32.9151 90.6924 32.9151C91.1356 32.9151 91.547 32.989 91.9268 33.1367C92.3172 33.2738 92.6601 33.4901 92.9555 33.7855C93.2509 34.0704 93.483 34.4344 93.6518 34.8775C93.8206 35.3101 93.905 35.8218 93.905 36.4126L88.3344 36.5075C88.3344 37.3094 88.4188 38.0162 88.5876 38.6282C88.767 39.2295 89.0519 39.699 89.4422 40.0366C89.8326 40.3637 90.3337 40.5272 90.9456 40.5272C91.2727 40.5272 91.605 40.4692 91.9427 40.3532C92.2908 40.2371 92.6126 40.0788 92.908 39.8784C93.2034 39.6779 93.4408 39.4564 93.6202 39.2137L94 39.5302C93.7151 39.9733 93.3722 40.3268 92.9713 40.5905C92.5704 40.8543 92.1589 41.0442 91.7369 41.1603C91.3149 41.2763 90.9245 41.3343 90.5658 41.3343ZM88.3819 35.8429H92.4174C92.4174 35.4631 92.3594 35.0991 92.2433 34.7509C92.1378 34.3922 91.9585 34.102 91.7053 33.8805C91.4521 33.6484 91.1197 33.5323 90.7083 33.5323C90.0963 33.5323 89.5846 33.717 89.1732 34.0862C88.7723 34.4449 88.5085 35.0305 88.3819 35.8429Z" fill="#836EC4"/>
<path d="M34.3201 40.6064C34.6471 40.6064 34.874 40.5272 35.0006 40.369C35.1272 40.2002 35.201 39.9733 35.2221 39.6885C35.2432 39.3931 35.2538 39.0555 35.2538 38.6756V35.0674C35.2538 34.8986 35.2538 34.7298 35.2538 34.561C35.2643 34.3922 35.2854 34.2181 35.3171 34.0387C35.1272 34.0493 34.9373 34.0598 34.7474 34.0704C34.568 34.0704 34.3834 34.0757 34.1935 34.0862V33.4374H34.6841C35.1377 33.4374 35.449 33.3952 35.6178 33.3108C35.7971 33.2158 35.9448 33.1156 36.0609 33.0101H36.5198C36.5409 33.1789 36.5568 33.3899 36.5673 33.6431C36.5779 33.8858 36.5884 34.197 36.599 34.5768C36.7572 34.3131 36.9735 34.0546 37.2478 33.8014C37.5221 33.5482 37.8281 33.3371 38.1657 33.1683C38.5139 32.9995 38.8779 32.9151 39.2577 32.9151C39.5531 32.9151 39.8116 32.9943 40.0331 33.1525C40.2547 33.3108 40.3655 33.564 40.3655 33.9121C40.3655 33.9965 40.3391 34.102 40.2863 34.2287C40.2336 34.3447 40.1492 34.4502 40.0331 34.5452C39.9171 34.6296 39.7641 34.6718 39.5742 34.6718C39.3421 34.6612 39.1574 34.5715 39.0203 34.4027C38.8831 34.2234 38.8304 34.0176 38.862 33.7855C38.5983 33.775 38.324 33.8436 38.0391 33.9913C37.7648 34.139 37.5063 34.3447 37.2636 34.6085C37.021 34.8617 36.8047 35.1624 36.6148 35.5105L36.6306 39.4036C36.6306 39.6146 36.6253 39.8045 36.6148 39.9733C36.6148 40.1316 36.599 40.3004 36.5673 40.4798C36.7361 40.4692 36.8997 40.4639 37.0579 40.4639C37.2267 40.4534 37.3955 40.4428 37.5643 40.4323V41.0811H34.3201V40.6064Z" fill="#836EC4"/>
<path d="M44.445 41.3343C43.8014 41.3343 43.2212 41.1761 42.7042 40.8596C42.1872 40.5325 41.7758 40.0683 41.4698 39.4669C41.1744 38.8656 41.0267 38.1587 41.0267 37.3463C41.0267 36.4812 41.2008 35.7163 41.5489 35.0516C41.8971 34.3869 42.3771 33.8647 42.989 33.4849C43.6115 33.105 44.3131 32.9151 45.0939 32.9151C45.442 32.9151 45.7849 32.9626 46.1225 33.0576C46.4707 33.142 46.745 33.2422 46.9454 33.3582V31.1901C46.9454 31.0213 46.9454 30.8631 46.9454 30.7154C46.956 30.5571 46.9718 30.3725 46.9929 30.1615C46.803 30.172 46.6131 30.1826 46.4232 30.1931C46.2438 30.2037 46.0592 30.2142 45.8693 30.2248V29.5601C46.3335 29.5601 46.6922 29.539 46.9454 29.4968C47.1987 29.4546 47.3886 29.4018 47.5152 29.3385C47.6523 29.2752 47.7578 29.2067 47.8317 29.1328H48.2906V39.4036C48.2906 39.5724 48.2853 39.7412 48.2748 39.91C48.2642 40.0788 48.2484 40.2688 48.2273 40.4798C48.4172 40.4692 48.6019 40.4587 48.7812 40.4481C48.9711 40.4376 49.161 40.427 49.3509 40.4165V41.0811H47.0879C47.0562 40.9229 47.0299 40.7804 47.0087 40.6538C46.9982 40.5167 46.9876 40.3848 46.9771 40.2582C46.6817 40.5853 46.3177 40.849 45.8851 41.0495C45.4526 41.2394 44.9725 41.3343 44.445 41.3343ZM45.0147 40.5589C45.3629 40.5589 45.7111 40.4587 46.0592 40.2582C46.4179 40.0577 46.7133 39.8098 46.9454 39.5144C46.9349 39.3878 46.9296 39.2559 46.9296 39.1188C46.9296 38.9711 46.9296 38.8128 46.9296 38.644L46.9454 34.0862C46.6922 33.8963 46.4127 33.7592 46.1067 33.6748C45.8113 33.5798 45.5053 33.5323 45.1888 33.5323C44.6613 33.5323 44.2023 33.6853 43.812 33.9913C43.4216 34.2972 43.1262 34.7245 42.9257 35.2731C42.7253 35.8218 42.6356 36.4653 42.6567 37.2039C42.6778 37.8474 42.778 38.4224 42.9574 38.9289C43.1473 39.4353 43.4111 39.8362 43.7487 40.1316C44.0968 40.4165 44.5189 40.5589 45.0147 40.5589Z" fill="#836EC4"/>
</svg>
