<svg width="791" height="448" viewBox="0 0 791 448" fill="none" xmlns="http://www.w3.org/2000/svg">
<path d="M312.274 133.572C312.791 131.64 315.072 131.197 316.533 130.139C317.789 129.23 319.375 129.272 320.684 128.473C322.042 127.644 323.214 126.85 324.719 126.299C326.939 125.485 328.909 124.06 331.175 123.257C333.697 122.364 336.332 121.85 338.88 121C342.566 119.771 346.704 118.135 350.496 117.658C355.631 117.012 358.926 112.36 363.095 109.808C366.972 107.435 372.42 104.107 377.13 104.981C379.421 105.406 381.786 105.201 384.052 104.703C386.699 104.121 389.457 104.119 392.064 103.398C393.744 102.933 396.982 100.907 398.749 101.176C400.353 101.42 401.835 100.992 403.532 101.447C407.216 102.434 411.197 103.55 415.011 103.119C419.835 102.574 424.476 98.222 429.11 96.7941C435.6 94.7945 442.785 95.3104 449.519 94.5729C452.827 94.2106 456.075 93.7099 459.421 93.4375C460.544 93.3461 461.608 93.7518 462.672 94.084C466.5 95.2791 470.335 96.5124 474.151 97.749C478.119 99.0348 482.768 101.383 487.09 100.571C489.652 100.089 492.066 99.7779 494.649 99.5931C499.551 99.2422 505.299 96.9847 510.178 98.1973C514.529 99.2788 519.032 99.5593 523.366 100.721C526.325 101.514 529.369 102.582 532.401 103.029C535.975 103.556 539.565 104.121 543.191 104.237C546.336 104.337 550.616 103.131 553.641 103.781C559.24 104.985 565.319 105.176 570.778 106.858C573.569 107.717 575.415 111.996 577.87 113.697C581.511 116.221 585.12 118.908 589.058 120.961C591.355 122.158 593.808 123.149 595.077 125.52C597.058 129.222 599.261 133.163 602.216 136.162C605.1 139.087 610.856 139.928 614.556 141.432C620.033 143.659 625.924 144.871 631.635 146.402C635.428 147.418 637.306 150.555 640.029 153.197C645.126 158.142 651.294 161.392 657.376 164.918C659.6 166.207 662.069 167.234 664.407 168.317C665.964 169.038 667.346 170.488 668.879 171.424C672.462 173.61 676.288 177.343 679.195 180.474C681.73 183.205 682.978 187.272 684.978 190.106C687.402 193.543 690.43 196.022 692.642 199.625C694.715 203.001 698.868 205.571 702.066 207.819C708.921 212.639 716.483 217.074 720.737 224.441C721.797 226.277 721.829 228.479 722.913 230.356C724.089 232.393 725.481 235.148 726.082 237.38C726.916 240.477 727.576 242.986 728.199 246.03C728.953 249.716 731.497 250.862 728.535 254.202" stroke="#F4B9B8" stroke-width="11" stroke-linecap="round"/>
<path d="M301.604 119.827L301.215 119.138C301.736 118.825 302.032 118.502 302.101 118.168C302.162 117.821 302.089 117.449 301.883 117.051C301.683 116.631 301.437 116.164 301.146 115.648L296.187 106.872C295.975 106.496 295.801 106.172 295.665 105.899C295.522 105.613 295.406 105.375 295.317 105.186C295.075 105.341 294.832 105.497 294.589 105.653C294.346 105.808 294.103 105.964 293.86 106.119L293.341 105.2C294.099 104.753 294.861 104.313 295.627 103.881C296.4 103.426 297.204 102.962 298.04 102.49C299.656 101.577 301.078 101.151 302.306 101.21C303.548 101.262 304.505 101.916 305.178 103.171C305.43 103.617 305.549 104.137 305.536 104.733C305.537 105.32 305.379 105.934 305.06 106.573C304.747 107.191 304.247 107.786 303.56 108.358L303.583 108.4C305.116 107.534 306.473 107.236 307.654 107.506C308.828 107.761 309.718 108.426 310.324 109.498C310.804 110.348 311.001 111.201 310.915 112.058C310.83 112.915 310.512 113.719 309.963 114.471C309.406 115.208 308.653 115.845 307.706 116.38L301.604 119.827ZM304.329 117.185C304.56 117.073 304.833 116.937 305.147 116.778C305.467 116.597 305.76 116.432 306.025 116.282C306.303 116.125 306.484 116.023 306.568 115.976C307.641 115.37 308.355 114.617 308.71 113.718C309.072 112.797 308.958 111.814 308.368 110.769C307.887 109.919 307.346 109.352 306.745 109.067C306.143 108.782 305.515 108.696 304.861 108.808C304.208 108.92 303.561 109.157 302.92 109.519C302.502 109.755 302.123 109.978 301.783 110.189C301.448 110.378 301.122 110.581 300.803 110.797L303.471 115.52C303.684 115.896 303.858 116.22 303.993 116.493C304.143 116.757 304.255 116.988 304.329 117.185ZM300.343 109.982L301.845 109.079C302.631 108.616 303.167 108.102 303.454 107.536C303.732 106.956 303.835 106.374 303.763 105.79C303.704 105.198 303.522 104.649 303.217 104.141C302.778 103.397 302.282 102.924 301.727 102.723C301.186 102.514 300.639 102.473 300.087 102.601C299.535 102.73 299.029 102.924 298.569 103.183C298.109 103.443 297.803 103.699 297.651 103.95C297.499 104.201 297.471 104.493 297.567 104.825C297.662 105.157 297.856 105.58 298.147 106.096L300.343 109.982Z" fill="#3A2B69"/>
<path d="M320.682 109.986C319.695 110.482 318.687 110.703 317.656 110.648C316.633 110.571 315.681 110.226 314.799 109.613C313.91 108.985 313.175 108.093 312.593 106.935C312.09 105.934 311.84 104.886 311.845 103.792C311.864 102.69 312.148 101.669 312.697 100.731C313.238 99.7779 314.045 99.0319 315.117 98.4928C315.718 98.1909 316.326 98.0106 316.941 97.952C317.563 97.8719 318.175 97.9313 318.777 98.1303C319.371 98.315 319.933 98.6501 320.464 99.1354C320.987 99.6065 321.45 100.242 321.853 101.043L314.37 104.967C314.916 106.053 315.512 106.953 316.158 107.667C316.811 108.36 317.516 108.802 318.275 108.993C319.027 109.171 319.817 109.051 320.646 108.634C321.09 108.411 321.5 108.106 321.879 107.719C322.271 107.324 322.6 106.891 322.863 106.418C323.127 105.945 323.298 105.483 323.375 105.032L324.106 105.202C324.021 105.997 323.798 106.709 323.434 107.34C323.071 107.97 322.643 108.508 322.15 108.952C321.657 109.397 321.168 109.742 320.682 109.986ZM313.981 104.034L319.449 101.284C319.19 100.77 318.864 100.316 318.469 99.9235C318.082 99.5093 317.641 99.2384 317.147 99.1107C316.646 98.9688 316.117 99.0379 315.559 99.3182C314.73 99.7351 314.163 100.334 313.857 101.115C313.558 101.874 313.6 102.847 313.981 104.034Z" fill="#3A2B69"/>
<path d="M334.411 103.544C333.432 103.982 332.428 104.167 331.4 104.101C330.379 104.013 329.435 103.664 328.566 103.053C327.706 102.421 327.011 101.513 326.483 100.33C326.143 99.5702 325.953 98.7705 325.91 97.9307C325.868 97.0909 325.968 96.2751 326.211 95.4835C326.461 94.6708 326.862 93.9398 327.413 93.2907C327.964 92.6415 328.663 92.1276 329.511 91.7492C330.329 91.3838 331.093 91.1916 331.803 91.1724C332.527 91.1467 333.149 91.2634 333.667 91.5224C334.186 91.7813 334.553 92.1519 334.769 92.634C334.912 92.9554 334.948 93.2721 334.877 93.5842C334.8 93.8816 334.593 94.1053 334.257 94.2554C333.899 94.4331 333.587 94.441 333.322 94.279C333.065 94.0959 332.894 93.9094 332.809 93.7195C332.744 93.5734 332.7 93.4175 332.679 93.2519C332.651 93.0716 332.673 92.8863 332.746 92.6961C332.473 92.3977 332.154 92.2334 331.79 92.2032C331.419 92.1584 331.064 92.1858 330.723 92.2855C330.39 92.3641 330.121 92.4491 329.917 92.5404C328.923 92.9841 328.263 93.761 327.935 94.8712C327.615 95.9602 327.795 97.2644 328.473 98.7838C328.91 99.7626 329.452 100.563 330.098 101.186C330.759 101.802 331.472 102.202 332.237 102.386C332.996 102.555 333.748 102.473 334.493 102.141C335.18 101.834 335.756 101.358 336.221 100.712C336.686 100.066 336.976 99.402 337.092 98.7194L337.858 98.9032C337.752 99.6865 337.513 100.389 337.143 101.01C336.786 101.625 336.362 102.147 335.871 102.577C335.394 103 334.907 103.323 334.411 103.544Z" fill="#3A2B69"/>
<path d="M348.834 97.1823C348.69 96.9469 348.572 96.7353 348.481 96.5477C348.39 96.36 348.288 96.1679 348.176 95.9712C347.87 96.6768 347.477 97.2957 346.999 97.8281C346.53 98.3397 345.968 98.7246 345.313 98.9827C344.182 99.4286 343.241 99.507 342.491 99.2179C341.735 98.914 341.21 98.3899 340.917 97.6456C340.647 96.9608 340.623 96.2907 340.847 95.6352C341.079 94.959 341.468 94.3326 342.015 93.756C342.571 93.1586 343.214 92.6301 343.944 92.1703C344.683 91.6898 345.428 91.3103 346.178 91.0319L345.633 89.6475C345.427 89.1265 345.189 88.6529 344.918 88.2266C344.647 87.8003 344.303 87.497 343.888 87.3166C343.473 87.1362 342.935 87.1677 342.275 87.4109C341.837 87.5661 341.423 87.824 341.032 88.1845C340.656 88.5391 340.448 88.9733 340.41 89.4872C340.576 89.5593 340.706 89.6714 340.801 89.8234C340.904 89.9547 340.982 90.0873 341.035 90.2212C341.105 90.3999 341.113 90.6376 341.058 90.9344C340.997 91.2164 340.777 91.4233 340.399 91.555C340.087 91.6782 339.808 91.6679 339.562 91.524C339.31 91.3653 339.126 91.137 339.008 90.8393C338.809 90.3332 338.816 89.8059 339.03 89.2573C339.258 88.7028 339.661 88.1745 340.237 87.6724C340.813 87.1702 341.525 86.7519 342.373 86.4175C343.624 85.9248 344.679 85.896 345.538 86.3312C346.392 86.7515 347.092 87.6791 347.641 89.114C347.858 89.6648 348.078 90.223 348.301 90.7886C348.518 91.3394 348.73 91.9006 348.938 92.4721C349.155 93.0229 349.375 93.5811 349.598 94.1467C349.692 94.3849 349.779 94.626 349.858 94.87C349.937 95.1141 350.02 95.3908 350.107 95.7003C350.37 95.5798 350.624 95.4622 350.871 95.3476C351.133 95.2271 351.395 95.1067 351.658 94.9862L352.027 95.924L348.834 97.1823ZM346.477 91.791C345.977 92.0054 345.468 92.2835 344.949 92.6256C344.439 92.9468 343.99 93.313 343.602 93.724C343.228 94.1291 342.966 94.5764 342.815 95.0659C342.673 95.5346 342.712 96.0265 342.932 96.5417C343.179 97.0807 343.522 97.4271 343.961 97.5809C344.409 97.7139 344.864 97.6895 345.325 97.5076C345.935 97.2671 346.42 96.9472 346.778 96.5479C347.146 96.1279 347.471 95.6215 347.753 95.0287C347.674 94.8708 347.596 94.6951 347.52 94.5016C347.443 94.3081 347.364 94.1071 347.282 93.8987C347.253 93.8243 347.159 93.5861 347.001 93.1842C346.857 92.7764 346.683 92.312 346.477 91.791Z" fill="#3A2B69"/>
<path d="M360.327 93.4502C359.509 93.7288 358.768 93.8121 358.105 93.7C357.456 93.5829 356.864 93.2098 356.329 92.5808C355.809 91.9467 355.337 91.0087 354.914 89.7667L353.537 85.7229C353.454 85.4806 353.371 85.2382 353.289 84.9959C353.222 84.7484 353.167 84.4882 353.124 84.2153C352.872 84.3181 352.612 84.4235 352.345 84.5315C352.087 84.6192 351.832 84.7145 351.58 84.8174L351.263 83.8859L351.967 83.646C352.618 83.4242 353.067 83.2037 353.314 82.9845C353.57 82.745 353.756 82.5212 353.871 82.313L354.53 82.0885L356.89 89.0176C357.334 90.3201 357.848 91.2351 358.433 91.7625C359.029 92.2697 359.771 92.3635 360.659 92.044C361.229 91.8328 361.715 91.4729 362.117 90.9643C362.528 90.4354 362.813 89.882 362.971 89.3041L360.982 83.4656C360.859 83.1021 360.76 82.789 360.688 82.5264C360.61 82.2486 360.55 81.9732 360.508 81.7003C360.24 81.8083 359.973 81.9163 359.705 82.0243C359.433 82.1172 359.163 82.2176 358.895 82.3256L358.578 81.3941L359.282 81.1543C359.934 80.9324 360.382 80.7119 360.629 80.4927C360.885 80.2532 361.071 80.0294 361.186 79.8212L361.845 79.5968L364.747 88.192C364.83 88.4343 364.938 88.7777 365.073 89.2221C365.207 89.6664 365.311 90.0452 365.384 90.3585C365.651 90.2505 365.919 90.1425 366.186 90.0345C366.454 89.9264 366.721 89.8184 366.989 89.7104L367.314 90.6646L364.065 91.7712C363.932 91.5292 363.811 91.2998 363.704 91.0829C363.611 90.8609 363.524 90.654 363.442 90.4623C363.132 91.0917 362.703 91.6941 362.156 92.2694C361.603 92.8296 360.993 93.2232 360.327 93.4502Z" fill="#3A2B69"/>
<path d="M375.389 88.7295C374.621 88.9525 373.906 89.0433 373.244 89.0021C372.587 88.9763 372.028 88.8885 371.568 88.7387L371.895 89.5187L370.927 89.7996L369.638 85.8753L370.353 85.6679C370.566 86.289 370.908 86.8063 371.378 87.2197C371.843 87.6178 372.369 87.8816 372.957 88.011C373.544 88.1405 374.13 88.1205 374.714 87.951C375.113 87.8351 375.487 87.6599 375.836 87.4255C376.18 87.1757 376.444 86.8823 376.63 86.5453C376.811 86.1929 376.841 85.8093 376.721 85.3944C376.596 84.9641 376.363 84.6486 376.021 84.4478C375.69 84.2272 375.287 84.0695 374.809 83.9748C374.332 83.8801 373.828 83.8096 373.298 83.7635C372.784 83.7129 372.267 83.6545 371.748 83.5886C371.229 83.5226 370.73 83.4092 370.25 83.2486C369.786 83.0835 369.38 82.8346 369.034 82.502C368.688 82.1693 368.43 81.7111 368.26 81.1272C368.167 80.8045 368.125 80.4332 368.137 80.0134C368.148 79.5936 368.251 79.1723 368.445 78.7495C368.634 78.3113 368.951 77.9111 369.396 77.5489C369.836 77.1712 370.448 76.8687 371.232 76.6413C371.647 76.5209 372.128 76.4563 372.675 76.4474C373.222 76.4386 373.79 76.5571 374.377 76.803L374.077 75.9405L375.045 75.6596L376.216 79.6932L375.478 79.9072C375.291 79.3783 375.019 78.8993 374.661 78.47C374.299 78.0253 373.864 77.7018 373.355 77.4995C372.842 77.2819 372.255 77.2689 371.594 77.4607C370.888 77.6658 370.386 78.003 370.089 78.4724C369.792 78.9417 369.71 79.4069 369.844 79.8679C369.982 80.3442 370.244 80.7014 370.63 80.9394C371.026 81.1575 371.496 81.3127 372.039 81.405C372.583 81.4972 373.154 81.5729 373.755 81.6319C374.41 81.7083 375.056 81.8123 375.694 81.9437C376.332 82.0751 376.892 82.3124 377.375 82.6554C377.853 82.9831 378.193 83.4927 378.394 84.1842C378.617 84.9525 378.602 85.6481 378.349 86.2712C378.112 86.8897 377.72 87.4034 377.172 87.8123C376.644 88.232 376.05 88.5378 375.389 88.7295Z" fill="#3A2B69"/>
<path d="M389.308 85.0775C388.235 85.3375 387.203 85.3243 386.211 85.0378C385.232 84.7319 384.382 84.1806 383.662 83.3838C382.938 82.5714 382.424 81.5354 382.119 80.2759C381.855 79.1874 381.849 78.1105 382.101 77.0451C382.369 75.976 382.876 75.0463 383.623 74.2561C384.366 73.4504 385.321 72.9062 386.487 72.6235C387.14 72.4652 387.773 72.4271 388.385 72.5091C389.01 72.5718 389.592 72.7681 390.133 73.0979C390.67 73.4122 391.142 73.8658 391.55 74.4586C391.953 75.0358 392.26 75.7598 392.471 76.6306L384.295 78.7606C384.581 79.9424 384.958 80.9541 385.426 81.7956C385.905 82.6179 386.492 83.2081 387.188 83.5662C387.88 83.9088 388.678 83.9708 389.579 83.7522C390.061 83.6354 390.531 83.4311 390.987 83.1395C391.458 82.844 391.876 82.4958 392.24 82.0949C392.604 81.6939 392.874 81.2825 393.052 80.8608L393.725 81.1916C393.463 81.9465 393.084 82.5899 392.588 83.1219C392.091 83.6538 391.552 84.0807 390.972 84.4025C390.391 84.7243 389.837 84.9493 389.308 85.0775ZM384.127 77.764L390.075 76.3223C389.939 75.7626 389.724 75.2468 389.428 74.7751C389.145 74.2841 388.777 73.9206 388.324 73.6845C387.868 73.4329 387.337 73.3805 386.731 73.5275C385.829 73.7461 385.141 74.2011 384.666 74.8923C384.203 75.5642 384.024 76.5215 384.127 77.764Z" fill="#3A2B69"/>
<path d="M412.238 80.4837C411.875 80.5445 411.495 80.5514 411.098 80.5043C410.703 80.473 410.315 80.3352 409.933 80.0909C409.568 79.8439 409.243 79.4522 408.958 78.9159C408.671 78.3637 408.448 77.6142 408.29 76.6674L407.188 69.795L405.369 70.1239L405.198 69.106C405.606 69.0215 405.999 68.8016 406.378 68.4462C406.754 68.0751 407.065 67.6092 407.312 67.0488C407.574 66.4857 407.719 65.8937 407.744 65.273L408.549 65.1382L409.104 68.4521L413.081 67.7862L413.235 68.7094L409.267 69.4226L410.321 76.0109C410.44 76.721 410.597 77.3193 410.792 77.8058C411 78.2738 411.259 78.6116 411.57 78.8192C411.88 79.0268 412.249 79.0949 412.675 79.0235C413.117 78.9496 413.506 78.7546 413.842 78.4387C414.195 78.1202 414.484 77.7149 414.709 77.2228L415.436 77.6366C415.176 78.2155 414.897 78.6839 414.6 79.0418C414.319 79.3971 414.033 79.6722 413.741 79.8671C413.452 80.0777 413.176 80.2213 412.913 80.2978C412.652 80.39 412.427 80.452 412.238 80.4837Z" fill="#3A2B69"/>
<path d="M427.037 77.3109C427.53 77.2503 427.856 77.0892 428.018 76.8275C428.177 76.55 428.246 76.1948 428.225 75.7622C428.202 75.3136 428.155 74.8035 428.085 74.2318L427.674 70.897C427.506 69.5313 427.158 68.5344 426.629 67.9063C426.116 67.2763 425.392 67.0269 424.457 67.1581C423.872 67.2463 423.31 67.4606 422.771 67.801C422.249 68.1394 421.839 68.5444 421.542 69.0162L422.408 76.0432C422.447 76.3608 422.474 76.6476 422.489 76.9036C422.503 77.1438 422.502 77.4018 422.488 77.6776C422.74 77.6304 422.985 77.5922 423.223 77.5629C423.476 77.5157 423.728 77.4685 423.98 77.4214L424.1 78.398L419.241 78.9963L419.153 78.2817C419.645 78.2211 419.972 78.0599 420.133 77.7983C420.292 77.5207 420.361 77.1656 420.34 76.7329C420.333 76.2824 420.295 75.7713 420.224 75.1997L418.837 63.9327C418.806 63.6787 418.776 63.4405 418.749 63.2181C418.736 62.978 418.725 62.6971 418.718 62.3756C418.434 62.4267 418.15 62.4778 417.866 62.5289C417.598 62.578 417.322 62.6281 417.038 62.6791L416.915 61.6787C417.614 61.5927 418.15 61.4944 418.523 61.384C418.912 61.2716 419.196 61.156 419.375 61.0373C419.57 60.9166 419.716 60.7938 419.813 60.6689L420.504 60.5839L421.399 67.849C421.711 67.5043 422.068 67.1944 422.469 66.9193C422.884 66.6263 423.314 66.38 423.756 66.1804C424.215 65.9788 424.667 65.8507 425.112 65.7959C426.493 65.6258 427.54 65.9403 428.25 66.7394C428.975 67.5207 429.458 68.8235 429.699 70.6477L430.268 75.0753C430.307 75.3929 430.335 75.6797 430.35 75.9358C430.379 76.174 430.387 76.431 430.372 76.7068C430.625 76.6597 430.87 76.6214 431.108 76.5921C431.36 76.5449 431.612 76.4978 431.864 76.4506L431.985 77.4272L427.125 78.0255L427.037 77.3109Z" fill="#3A2B69"/>
<path d="M441.13 77.1234C440.029 77.2051 439.013 77.0239 438.082 76.5797C437.165 76.1184 436.416 75.436 435.836 74.5325C435.254 73.6131 434.915 72.5072 434.819 71.2147C434.736 70.0978 434.906 69.0343 435.328 68.0242C435.766 67.013 436.418 66.1784 437.284 65.5204C438.148 64.8465 439.179 64.4651 440.376 64.3762C441.046 64.3264 441.677 64.3919 442.268 64.5726C442.873 64.7362 443.416 65.0247 443.896 65.4383C444.375 65.8359 444.767 66.3603 445.072 67.0115C445.376 67.6467 445.561 68.4111 445.627 69.3047L437.213 70.0742C437.303 71.2869 437.51 72.3464 437.834 73.2529C438.173 74.1422 438.657 74.8203 439.285 75.287C439.912 75.7378 440.689 75.9288 441.614 75.86C442.109 75.8233 442.605 75.6982 443.102 75.4847C443.616 75.2701 444.085 74.9946 444.509 74.6582C444.933 74.3219 445.267 73.9601 445.511 73.573L446.121 74.009C445.74 74.7112 445.261 75.2842 444.685 75.7282C444.108 76.1721 443.507 76.5056 442.882 76.7285C442.257 76.9514 441.673 77.083 441.13 77.1234ZM437.21 69.0636L443.314 68.6102C443.271 68.0358 443.142 67.4918 442.928 66.9783C442.728 66.4477 442.424 66.029 442.016 65.7224C441.607 65.3998 441.091 65.2616 440.469 65.3079C439.544 65.3766 438.79 65.7134 438.21 66.318C437.644 66.9056 437.311 67.8208 437.21 69.0636Z" fill="#3A2B69"/>
<path d="M461.466 63.4469C461.46 61.6709 461.775 60.2698 462.411 59.2436C463.064 58.2173 464.182 57.7014 465.766 57.6958C466.118 57.6946 466.486 57.7573 466.871 57.884C467.271 57.9946 467.616 58.1854 467.905 58.4564C468.194 58.7114 468.339 59.0468 468.34 59.4628C468.341 59.7668 468.254 60.0232 468.079 60.2318C467.92 60.4403 467.68 60.5452 467.36 60.5463C466.976 60.5636 466.704 60.4526 466.543 60.2131C466.398 59.9576 466.325 59.7419 466.325 59.5659C466.324 59.4699 466.332 59.3739 466.348 59.2778C466.363 59.1818 466.395 59.0776 466.442 58.9655C466.33 58.8219 466.17 58.7184 465.961 58.6552C465.769 58.5918 465.585 58.5605 465.409 58.5611C464.913 58.5628 464.53 58.7082 464.259 58.9971C463.988 59.2861 463.797 59.6467 463.686 60.0791C463.576 60.5115 463.521 60.9597 463.523 61.4237L463.532 63.9437L466.772 63.9324L466.775 64.8684L463.535 64.9517L463.589 73.3995C463.59 73.7195 463.583 74.0076 463.568 74.2636C463.569 74.5036 463.546 74.7597 463.499 75.0319C463.755 75.015 464.003 75.0061 464.243 75.0053C464.498 74.9884 464.754 74.9715 465.01 74.9546L465.014 75.9386L460.118 75.9557L460.115 75.2357C460.611 75.234 460.955 75.1128 461.146 74.8721C461.337 74.6154 461.448 74.271 461.478 73.8389C461.509 73.3908 461.523 72.8788 461.521 72.3028L461.471 64.9829L459.504 65.0378L459.5 63.9578L461.468 63.9509L461.466 63.4469Z" fill="#3A2B69"/>
<path d="M471.181 75.3066C471.676 75.3208 472.024 75.2108 472.223 74.9764C472.422 74.726 472.544 74.3854 472.588 73.9545C472.633 73.5076 472.664 72.9962 472.68 72.4205L472.837 66.9507C472.845 66.6948 472.86 66.4552 472.882 66.2317C472.905 65.9923 472.937 65.7131 472.978 65.3941C472.69 65.4019 472.402 65.4096 472.113 65.4173C471.841 65.4255 471.56 65.4334 471.272 65.4411L471.301 64.4336C472.005 64.4538 472.549 64.4374 472.935 64.3845C473.321 64.3315 473.611 64.2599 473.806 64.1694C474.016 64.0794 474.179 63.9801 474.294 63.8713L474.99 63.8913L474.712 73.5833C474.702 73.9032 474.686 74.1908 474.663 74.4463C474.656 74.6862 474.625 74.9414 474.569 75.2119C474.825 75.2033 475.073 75.2024 475.313 75.2093C475.569 75.2006 475.826 75.192 476.082 75.1834L476.054 76.167L471.16 76.0263L471.181 75.3066ZM473.907 61.4832C473.571 61.4736 473.279 61.3291 473.031 61.0499C472.783 60.7706 472.665 60.4311 472.676 60.0312C472.688 59.6314 472.825 59.2992 473.089 59.0347C473.369 58.7546 473.677 58.6194 474.013 58.6291C474.381 58.6397 474.681 58.7923 474.912 59.0871C475.16 59.3663 475.279 59.7059 475.267 60.1057C475.256 60.5056 475.11 60.8375 474.83 61.1016C474.567 61.3661 474.259 61.4933 473.907 61.4832Z" fill="#3A2B69"/>
<path d="M480.722 75.6566C481.217 75.688 481.568 75.5901 481.775 75.3627C481.983 75.1194 482.117 74.7832 482.176 74.3541C482.236 73.909 482.285 73.3991 482.321 72.8242L482.668 67.3632C482.684 67.1078 482.701 66.8523 482.717 66.5968C482.749 66.3423 482.798 66.0809 482.863 65.8125C482.574 65.8102 482.286 65.8079 481.998 65.8056C481.726 65.7883 481.446 65.7786 481.158 65.7763L481.22 64.7943L481.963 64.8414C482.649 64.8851 483.124 64.8511 483.388 64.7396C483.668 64.6131 483.902 64.4756 484.087 64.3271L484.782 64.3713C484.798 64.6288 484.801 64.9496 484.793 65.3339C484.786 65.7022 484.772 66.1742 484.751 66.7501C485.016 66.3661 485.368 65.9957 485.808 65.6388C486.247 65.282 486.731 64.9921 487.258 64.769C487.801 64.547 488.36 64.4543 488.935 64.4908C489.382 64.5192 489.766 64.6638 490.086 64.9246C490.406 65.1855 490.549 65.5793 490.516 66.1063C490.507 66.234 490.457 66.3912 490.365 66.5777C490.274 66.7483 490.137 66.8998 489.952 67.0324C489.768 67.149 489.532 67.1981 489.245 67.1799C488.895 67.1416 488.624 66.9881 488.433 66.7194C488.242 66.4348 488.182 66.1183 488.252 65.7701C487.854 65.7288 487.432 65.8062 486.987 66.0023C486.558 66.1995 486.147 66.486 485.754 66.8619C485.362 67.2218 485.006 67.6561 484.685 68.1648L484.335 74.0584C484.315 74.3778 484.288 74.6647 484.256 74.9191C484.241 75.1587 484.201 75.4126 484.136 75.681C484.392 75.6813 484.64 75.689 484.88 75.7042C485.136 75.7045 485.393 75.7048 485.649 75.705L485.587 76.6871L480.677 76.3751L480.722 75.6566Z" fill="#3A2B69"/>
<path d="M498.228 78.1893C497.433 78.1059 496.736 77.9204 496.139 77.6326C495.54 77.3607 495.056 77.0687 494.686 76.7565L494.694 77.602L493.692 77.497L493.978 73.3764L494.718 73.4539C494.682 74.1097 494.803 74.7176 495.082 75.2777C495.363 75.822 495.751 76.2648 496.246 76.6062C496.741 76.9477 497.291 77.15 497.896 77.2134C498.31 77.2567 498.722 77.2356 499.133 77.1499C499.546 77.0484 499.902 76.8765 500.201 76.6343C500.501 76.3762 500.674 76.0323 500.719 75.6027C500.766 75.1571 500.669 74.777 500.428 74.4622C500.205 74.1332 499.891 73.8348 499.484 73.567C499.078 73.2992 498.638 73.044 498.165 72.8014C497.708 72.5604 497.251 72.3115 496.795 72.0547C496.34 71.7978 495.92 71.5045 495.536 71.1747C495.168 70.8466 494.887 70.4632 494.691 70.0244C494.496 69.5857 494.43 69.064 494.493 68.4593C494.528 68.1251 494.63 67.7658 494.799 67.3813C494.968 66.9968 495.222 66.6454 495.561 66.3269C495.902 65.9926 496.347 65.7416 496.895 65.5738C497.445 65.3901 498.126 65.3407 498.938 65.4257C499.367 65.4707 499.837 65.5924 500.347 65.7906C500.857 65.9888 501.338 66.3126 501.79 66.7621L501.837 65.8501L502.84 65.9551L502.402 70.1322L501.638 70.0522C501.665 69.492 501.593 68.9455 501.424 68.413C501.256 67.8645 500.975 67.4007 500.58 67.0215C500.187 66.6265 499.649 66.3931 498.964 66.3214C498.232 66.2447 497.64 66.3677 497.188 66.6904C496.736 67.0131 496.485 67.4131 496.435 67.8905C496.384 68.3838 496.491 68.8134 496.759 69.1792C497.044 69.5308 497.42 69.8518 497.889 70.1421C498.357 70.4325 498.858 70.7182 499.391 70.9993C499.969 71.3173 500.529 71.6574 501.07 72.0198C501.611 72.3821 502.041 72.8132 502.359 73.313C502.678 73.7969 502.8 74.3969 502.725 75.113C502.642 75.9086 502.366 76.5473 501.897 77.0291C501.444 77.5126 500.887 77.8403 500.225 78.0124C499.578 78.202 498.912 78.2609 498.228 78.1893Z" fill="#3A2B69"/>
<path d="M511.248 79.8667C510.884 79.8139 510.52 79.7045 510.156 79.5386C509.79 79.3885 509.462 79.1389 509.173 78.7898C508.9 78.443 508.71 77.9708 508.603 77.3732C508.498 76.7598 508.514 75.978 508.652 75.028L509.698 68.1469L507.866 67.9054L508.014 66.8841C508.428 66.928 508.87 66.8384 509.338 66.6154C509.81 66.3766 510.248 66.0279 510.654 65.5694C511.076 65.1133 511.394 64.5935 511.608 64.0102L512.415 64.1273L511.933 67.4525L515.923 68.0312L515.789 68.9575L511.792 68.4263L510.787 75.0223C510.683 75.7349 510.651 76.3525 510.688 76.8753C510.743 77.3846 510.887 77.7854 511.12 78.0778C511.352 78.3702 511.682 78.5473 512.11 78.6094C512.553 78.6737 512.983 78.6067 513.4 78.4085C513.832 78.2125 514.231 77.9147 514.597 77.515L515.162 78.1305C514.738 78.6025 514.33 78.9637 513.938 79.214C513.562 79.4666 513.205 79.6412 512.868 79.7378C512.528 79.8502 512.221 79.9028 511.947 79.8954C511.671 79.9038 511.438 79.8943 511.248 79.8667Z" fill="#3A2B69"/>
<path d="M532.361 83.7564C532.001 83.6794 531.645 83.5459 531.293 83.3559C530.938 83.1816 530.628 82.9107 530.363 82.5431C530.114 82.1788 529.956 81.6949 529.888 81.0915C529.825 80.4724 529.893 79.6935 530.094 78.7548L531.599 71.9592L529.787 71.5957L530.003 70.5865C530.413 70.658 530.859 70.5982 531.342 70.407C531.828 70.2002 532.289 69.8817 532.725 69.4514C533.176 69.0245 533.528 68.5271 533.781 67.9594L534.579 68.1303L533.875 71.4158L537.818 72.2602L537.622 73.1754L533.669 72.378L532.225 78.892C532.074 79.596 532 80.2101 532.002 80.7342C532.023 81.246 532.14 81.6556 532.353 81.9629C532.565 82.2701 532.882 82.469 533.305 82.5595C533.743 82.6533 534.176 82.6152 534.606 82.4453C535.05 82.2788 535.468 82.0083 535.859 81.6339L536.382 82.2859C535.928 82.7285 535.496 83.0615 535.088 83.2851C534.696 83.512 534.329 83.6623 533.986 83.7361C533.639 83.8255 533.33 83.8574 533.057 83.8318C532.781 83.8217 532.549 83.7966 532.361 83.7564Z" fill="#3A2B69"/>
<path d="M543.594 86.0979L542.93 76.383C542.908 76.0295 542.882 75.7244 542.851 75.4678C542.836 75.2153 542.827 74.9978 542.826 74.8154C542.825 74.633 542.826 74.4758 542.828 74.3439L541.58 74.0858L541.834 73.135L546.75 74.4458L546.565 75.1415C545.865 74.9714 545.414 75.108 545.213 75.5512C545.032 75.983 544.966 76.603 545.016 77.411L545.217 80.942C545.241 81.346 545.264 81.7578 545.285 82.1772C545.31 82.5813 545.334 82.9853 545.359 83.3893C545.61 83.009 545.86 82.6286 546.11 82.2483C546.38 81.8567 546.643 81.4629 546.897 81.0672L550.6 75.4721L551.55 75.7256L552.093 83.0984C552.126 83.4714 552.157 83.8523 552.186 84.2408C552.215 84.6294 552.244 85.0179 552.273 85.4065C552.487 85.0993 552.692 84.7979 552.886 84.5021C553.101 84.1949 553.307 83.8857 553.506 83.5745L556.212 79.5764C556.402 79.2961 556.589 79.0312 556.771 78.7818C556.954 78.5324 557.137 78.3412 557.322 78.2082L555.958 77.9192L556.212 76.9684L560.247 78.0442L560.061 78.7399C559.655 78.6482 559.308 78.6137 559.021 78.6364C558.749 78.6632 558.507 78.7312 558.296 78.8405C558.084 78.9497 557.896 79.0982 557.73 79.2857C557.564 79.4733 557.397 79.6939 557.23 79.9474L551.455 88.1939L550.527 87.9466L550.012 81.0284C549.994 80.7254 549.973 80.4301 549.95 80.1425C549.932 79.8395 549.911 79.5442 549.889 79.2567C549.87 78.9537 549.849 78.6584 549.827 78.3709C549.664 78.6089 549.499 78.8548 549.332 79.1083C549.169 79.3464 549.004 79.5922 548.837 79.8458C548.675 80.0838 548.51 80.3297 548.343 80.5832L544.475 86.3329L543.594 86.0979Z" fill="#3A2B69"/>
<path d="M564.375 92.5309C563.31 92.1825 562.424 91.6231 561.717 90.8528C561.014 90.0673 560.547 89.1566 560.313 88.1206C560.1 87.0744 560.178 85.9886 560.546 84.8634C560.939 83.6621 561.544 82.6646 562.359 81.8709C563.174 81.0772 564.105 80.5485 565.151 80.2848C566.202 80.0059 567.267 80.0431 568.347 80.3965C569.411 80.7449 570.292 81.3195 570.99 82.1202C571.692 82.9058 572.16 83.8165 572.393 84.8525C572.627 85.8885 572.562 86.9615 572.198 88.0715C571.815 89.2424 571.206 90.2298 570.37 91.0338C569.555 91.8275 568.622 92.3638 567.571 92.6427C566.52 92.9216 565.454 92.8844 564.375 92.5309ZM564.856 91.6783C565.662 91.9421 566.375 91.9231 566.996 91.6212C567.617 91.3193 568.145 90.8358 568.582 90.1706C569.034 89.5104 569.391 88.7774 569.655 87.9714C569.879 87.2872 570.03 86.5957 570.107 85.897C570.204 85.1881 570.203 84.5228 570.104 83.901C570.009 83.264 569.794 82.7136 569.457 82.25C569.136 81.7913 568.671 81.4624 568.063 81.2633C567.272 81.0044 566.551 81.021 565.9 81.3129C565.249 81.6048 564.683 82.0759 564.2 82.7262C563.733 83.3814 563.363 84.1272 563.089 84.9635C562.781 85.9063 562.616 86.8457 562.596 87.7819C562.581 88.7028 562.752 89.5165 563.11 90.223C563.468 90.9294 564.05 91.4145 564.856 91.6783Z" fill="#3A2B69"/>
<path d="M586.907 100.925C586.567 100.785 586.24 100.591 585.927 100.341C585.609 100.107 585.352 99.7848 585.156 99.376C584.976 98.9733 584.906 98.469 584.947 97.8633C584.994 97.2427 585.2 96.4884 585.564 95.6003L588.252 89.1798L586.533 88.5003L586.925 87.5455C587.316 87.6887 587.766 87.7091 588.275 87.6067C588.79 87.4895 589.3 87.2579 589.805 86.9118C590.325 86.5718 590.76 86.1449 591.109 85.631L591.864 85.9409L590.588 89.0492L594.318 90.5802L593.963 91.4461L590.215 89.9595L587.637 96.1136C587.363 96.7797 587.181 97.3708 587.09 97.887C587.02 98.3944 587.063 98.8182 587.217 99.1583C587.372 99.4984 587.649 99.7505 588.048 99.9145C588.463 100.085 588.896 100.124 589.349 100.033C589.816 99.9482 590.275 99.7563 590.726 99.4572L591.125 100.192C590.599 100.547 590.116 100.798 589.675 100.945C589.248 101.099 588.86 101.182 588.509 101.193C588.152 101.22 587.842 101.196 587.578 101.123C587.308 101.064 587.085 100.998 586.907 100.925Z" fill="#3A2B69"/>
<path d="M594.178 102.831C594.63 103.037 594.993 103.07 595.267 102.932C595.548 102.778 595.792 102.512 596.001 102.132C596.216 101.738 596.443 101.279 596.682 100.755L598.953 95.776C599.059 95.5431 599.165 95.3102 599.271 95.0773C599.392 94.851 599.531 94.6241 599.687 94.3965C599.419 94.2916 599.15 94.1866 598.881 94.0817C598.634 93.9688 598.376 93.8599 598.107 93.7549L598.515 92.8596L599.192 93.1684C599.818 93.4539 600.274 93.5915 600.56 93.5813C600.868 93.5632 601.134 93.5178 601.361 93.4453L601.994 93.7341C601.917 93.9803 601.806 94.2814 601.661 94.6374C601.523 94.9789 601.342 95.415 601.117 95.9457C601.502 95.6813 601.963 95.4608 602.501 95.284C603.039 95.1073 603.594 95.0087 604.166 94.9883C604.752 94.9745 605.308 95.0871 605.832 95.3261C606.239 95.512 606.546 95.7839 606.752 96.1416C606.958 96.4994 606.952 96.9185 606.733 97.3989C606.68 97.5154 606.577 97.6444 606.424 97.7858C606.278 97.9128 606.096 98.0052 605.876 98.0632C605.663 98.1066 605.425 98.0686 605.163 97.9491C604.849 97.7884 604.651 97.5485 604.568 97.2293C604.492 96.8955 604.548 96.5784 604.738 96.2781C604.381 96.0975 603.959 96.0195 603.473 96.0441C603.002 96.0752 602.515 96.1964 602.015 96.4076C601.52 96.6043 601.033 96.8831 600.552 97.2439L598.123 102.626C597.991 102.917 597.864 103.175 597.743 103.402C597.643 103.62 597.515 103.843 597.359 104.071C597.598 104.162 597.827 104.258 598.046 104.357C598.285 104.449 598.525 104.541 598.764 104.632L598.356 105.528L593.88 103.486L594.178 102.831Z" fill="#3A2B69"/>
<path d="M605.765 108.261C606.209 108.482 606.57 108.528 606.849 108.399C607.135 108.256 607.389 107.998 607.61 107.626C607.839 107.239 608.082 106.788 608.339 106.272L610.781 101.376C610.895 101.147 611.01 100.935 611.124 100.742C611.245 100.534 611.392 100.295 611.563 100.022C611.298 99.9083 611.034 99.794 610.769 99.6798C610.518 99.5727 610.26 99.4621 609.996 99.3479L610.445 98.4458C611.075 98.76 611.576 98.9742 611.949 99.0883C612.321 99.2024 612.614 99.2593 612.829 99.2591C613.058 99.2661 613.248 99.2444 613.398 99.1942L614.021 99.5048L609.693 108.182C609.55 108.468 609.415 108.722 609.286 108.944C609.179 109.159 609.043 109.377 608.879 109.599C609.115 109.699 609.341 109.803 609.555 109.91C609.792 110.01 610.028 110.11 610.264 110.21L609.825 111.09L605.444 108.905L605.765 108.261ZM614.05 96.8644C613.749 96.7144 613.545 96.4606 613.438 96.103C613.33 95.7453 613.365 95.3875 613.544 95.0296C613.722 94.6716 613.987 94.428 614.337 94.2989C614.709 94.1626 615.046 94.1694 615.346 94.3193C615.676 94.4836 615.883 94.7481 615.97 95.1129C616.077 95.4706 616.042 95.8284 615.863 96.1864C615.685 96.5443 615.413 96.7843 615.048 96.9063C614.698 97.0355 614.365 97.0215 614.05 96.8644Z" fill="#3A2B69"/>
<path d="M618.828 116.324C617.859 115.794 617.105 115.089 616.565 114.21C616.047 113.324 615.79 112.344 615.795 111.27C615.807 110.182 616.124 109.07 616.747 107.933C617.285 106.951 618.006 106.151 618.909 105.533C619.827 104.923 620.828 104.577 621.913 104.496C623.005 104.401 624.077 104.642 625.129 105.218C625.719 105.541 626.212 105.939 626.61 106.412C627.029 106.879 627.328 107.416 627.505 108.024C627.691 108.619 627.734 109.272 627.636 109.984C627.545 110.682 627.285 111.425 626.855 112.21L619.376 108.279C618.792 109.345 618.389 110.347 618.168 111.284C617.968 112.214 618.005 113.046 618.279 113.78C618.559 114.499 619.107 115.082 619.921 115.527C620.356 115.766 620.84 115.931 621.374 116.022C621.921 116.122 622.465 116.145 623.004 116.094C623.543 116.043 624.02 115.921 624.435 115.729L624.71 116.426C624.008 116.808 623.295 117.029 622.569 117.087C621.844 117.146 621.158 117.099 620.512 116.946C619.866 116.793 619.305 116.586 618.828 116.324ZM619.923 107.429L625.291 110.369C625.568 109.864 625.756 109.337 625.855 108.79C625.976 108.236 625.949 107.719 625.773 107.24C625.606 106.747 625.248 106.35 624.701 106.051C623.887 105.605 623.072 105.478 622.255 105.669C621.461 105.854 620.683 106.441 619.923 107.429Z" fill="#3A2B69"/>
<path d="M631.134 123.485C630.45 123.07 629.9 122.604 629.483 122.089C629.057 121.587 628.744 121.116 628.544 120.676L628.19 121.444L627.328 120.921L629.347 117.318L629.983 117.704C629.67 118.281 629.52 118.883 629.533 119.509C629.555 120.121 629.717 120.687 630.018 121.207C630.32 121.727 630.731 122.145 631.251 122.461C631.606 122.676 631.988 122.833 632.397 122.932C632.813 123.016 633.208 123.013 633.582 122.921C633.964 122.816 634.267 122.579 634.491 122.21C634.724 121.827 634.799 121.442 634.716 121.055C634.655 120.662 634.498 120.258 634.245 119.842C633.992 119.426 633.703 119.008 633.379 118.586C633.068 118.173 632.761 117.753 632.459 117.326C632.157 116.899 631.903 116.455 631.696 115.992C631.504 115.539 631.413 115.072 631.424 114.592C631.435 114.111 631.598 113.612 631.913 113.092C632.088 112.805 632.334 112.523 632.651 112.248C632.968 111.972 633.347 111.763 633.79 111.62C634.241 111.463 634.75 111.426 635.317 111.509C635.893 111.578 636.53 111.824 637.228 112.247C637.597 112.471 637.97 112.782 638.346 113.179C638.723 113.576 639.019 114.075 639.236 114.674L639.668 113.869L640.53 114.393L638.35 117.983L637.693 117.584C637.957 117.089 638.125 116.564 638.2 116.01C638.282 115.443 638.226 114.903 638.031 114.392C637.845 113.867 637.457 113.426 636.869 113.069C636.24 112.687 635.652 112.545 635.106 112.644C634.559 112.742 634.161 112.997 633.912 113.407C633.655 113.831 633.569 114.265 633.654 114.71C633.762 115.15 633.965 115.601 634.264 116.064C634.564 116.526 634.895 116.999 635.257 117.481C635.644 118.015 636.005 118.562 636.339 119.12C636.674 119.679 636.878 120.252 636.952 120.84C637.034 121.414 636.888 122.009 636.514 122.624C636.099 123.308 635.577 123.768 634.947 124.003C634.331 124.247 633.687 124.305 633.016 124.178C632.349 124.073 631.722 123.842 631.134 123.485Z" fill="#3A2B69"/>
<path d="M650.511 136.332C649.717 135.764 649.141 135.056 648.783 134.21C648.434 133.35 648.337 132.414 648.49 131.403C648.657 130.4 649.099 129.398 649.816 128.396C650.58 127.33 651.47 126.54 652.486 126.028C653.502 125.516 654.555 125.295 655.645 125.367C656.748 125.448 657.78 125.833 658.743 126.523C659.172 126.83 659.553 127.191 659.886 127.606C660.241 128.018 660.49 128.384 660.635 128.704L662.549 126.03C662.698 125.822 662.838 125.627 662.968 125.445C663.121 125.259 663.303 125.045 663.516 124.804C663.272 124.649 663.029 124.494 662.785 124.34C662.555 124.194 662.318 124.044 662.074 123.89L662.661 123.07C663.234 123.48 663.694 123.771 664.044 123.942C664.393 124.114 664.674 124.216 664.886 124.25C665.111 124.293 665.302 124.301 665.458 124.276L666.024 124.681L656.957 137.346C656.808 137.554 656.653 137.757 656.491 137.956C656.329 138.155 656.141 138.375 655.929 138.617C656.173 138.772 656.41 138.922 656.64 139.067C656.884 139.221 657.127 139.376 657.371 139.531L656.784 140.35L653.993 138.353C654.094 138.13 654.187 137.931 654.273 137.756C654.381 137.577 654.484 137.405 654.583 137.24C653.93 137.383 653.248 137.386 652.538 137.252C651.837 137.104 651.161 136.797 650.511 136.332ZM651.898 135.878C652.327 136.186 652.845 136.37 653.451 136.43C654.071 136.499 654.654 136.454 655.201 136.295C655.299 136.129 655.409 135.962 655.53 135.793C655.661 135.611 655.801 135.416 655.95 135.208L659.993 129.601C659.848 129.144 659.624 128.728 659.321 128.354C659.041 127.976 658.706 127.647 658.315 127.368C657.665 126.902 656.964 126.685 656.212 126.718C655.461 126.751 654.719 127.017 653.988 127.516C653.257 128.016 652.578 128.73 651.952 129.66C651.41 130.472 651.026 131.269 650.8 132.052C650.587 132.844 650.558 133.572 650.714 134.234C650.892 134.893 651.286 135.441 651.898 135.878Z" fill="#3A2B69"/>
<path d="M659.892 141.914C660.284 142.219 660.629 142.335 660.928 142.264C661.237 142.18 661.536 141.977 661.827 141.655C662.127 141.321 662.454 140.927 662.808 140.472L666.167 136.153C666.324 135.951 666.478 135.766 666.628 135.599C666.788 135.42 666.978 135.213 667.2 134.98C666.963 134.816 666.726 134.652 666.489 134.488C666.264 134.333 666.033 134.174 665.796 134.01L666.415 133.214C666.971 133.646 667.42 133.955 667.762 134.14C668.105 134.326 668.381 134.439 668.592 134.481C668.815 134.533 669.005 134.549 669.162 134.53L669.711 134.957L663.759 142.611C663.563 142.864 663.38 143.086 663.21 143.278C663.062 143.468 662.886 143.655 662.681 143.84C662.893 143.985 663.094 144.131 663.283 144.278C663.495 144.423 663.707 144.567 663.919 144.712L663.315 145.488L659.45 142.483L659.892 141.914ZM670.261 132.374C669.995 132.168 669.845 131.879 669.81 131.507C669.775 131.135 669.88 130.791 670.126 130.476C670.371 130.16 670.679 129.973 671.048 129.916C671.439 129.855 671.768 129.928 672.033 130.134C672.323 130.36 672.475 130.661 672.488 131.035C672.523 131.407 672.417 131.751 672.172 132.067C671.926 132.383 671.613 132.564 671.231 132.612C670.862 132.67 670.538 132.59 670.261 132.374Z" fill="#3A2B69"/>
<path d="M670.589 151.957C669.843 151.328 669.325 150.577 669.035 149.704C668.756 148.82 668.733 147.879 668.966 146.883C669.211 145.897 669.731 144.933 670.526 143.991C671.372 142.989 672.321 142.272 673.375 141.842C674.428 141.412 675.495 141.276 676.576 141.434C677.669 141.602 678.668 142.068 679.573 142.831C679.977 143.172 680.328 143.562 680.626 144.002C680.947 144.44 681.167 144.825 681.286 145.155L683.406 142.642C683.571 142.446 683.726 142.263 683.87 142.091C684.037 141.918 684.236 141.72 684.467 141.496C684.237 141.322 684.006 141.149 683.776 140.975C683.557 140.812 683.333 140.644 683.103 140.471L683.752 139.7C684.291 140.154 684.727 140.48 685.062 140.679C685.397 140.877 685.668 141.002 685.877 141.052C686.098 141.113 686.287 141.137 686.445 141.123L686.977 141.572L676.935 153.479C676.77 153.674 676.599 153.865 676.421 154.05C676.244 154.236 676.04 154.44 675.809 154.664C676.04 154.838 676.264 155.006 676.482 155.169C676.713 155.343 676.943 155.516 677.174 155.69L676.524 156.46L673.901 154.247C674.019 154.033 674.127 153.842 674.227 153.675C674.348 153.505 674.465 153.342 674.577 153.185C673.914 153.275 673.235 153.225 672.537 153.035C671.85 152.832 671.201 152.473 670.589 151.957ZM672.008 151.615C672.411 151.955 672.913 152.18 673.513 152.288C674.124 152.406 674.709 152.407 675.267 152.292C675.379 152.135 675.502 151.977 675.636 151.818C675.78 151.647 675.935 151.463 676.1 151.267L680.575 145.999C680.467 145.531 680.277 145.099 680.005 144.702C679.755 144.303 679.447 143.949 679.08 143.64C678.468 143.124 677.787 142.852 677.035 142.825C676.283 142.798 675.523 143.005 674.754 143.445C673.985 143.885 673.252 144.543 672.555 145.42C671.95 146.187 671.504 146.951 671.217 147.714C670.942 148.487 670.855 149.209 670.958 149.882C671.083 150.552 671.433 151.13 672.008 151.615Z" fill="#3A2B69"/>
<path d="M678.99 158.729L679.481 158.203C679.844 158.541 680.177 158.687 680.481 158.643C680.796 158.586 681.113 158.411 681.431 158.117C681.76 157.811 682.12 157.447 682.513 157.026L686.262 153.04C686.436 152.852 686.611 152.665 686.785 152.478C686.971 152.301 687.175 152.13 687.395 151.964C687.174 151.779 686.952 151.594 686.731 151.41C686.521 151.236 686.305 151.057 686.083 150.872L686.771 150.135C687.286 150.615 687.694 150.951 687.995 151.145C688.308 151.349 688.561 151.476 688.755 151.525C688.95 151.575 689.126 151.597 689.284 151.592L689.793 152.066C689.729 152.159 689.647 152.258 689.549 152.364C689.463 152.48 689.365 152.608 689.257 152.747C689.149 152.887 689.018 153.039 688.865 153.203C689.33 153.22 689.796 153.283 690.264 153.391C690.744 153.51 691.203 153.675 691.64 153.886C692.09 154.108 692.484 154.377 692.823 154.694C693.842 155.643 694.285 156.657 694.153 157.737C694.032 158.806 693.344 160.013 692.09 161.359L689.046 164.625C688.828 164.859 688.626 165.064 688.44 165.24C688.276 165.416 688.084 165.587 687.863 165.753C688.062 165.916 688.248 166.079 688.424 166.243C688.622 166.405 688.82 166.568 689.019 166.731L688.348 167.451L684.766 164.113L685.257 163.586C685.62 163.924 685.953 164.071 686.257 164.026C686.572 163.97 686.889 163.795 687.207 163.501C687.536 163.195 687.896 162.831 688.289 162.41L690.58 159.952C691.507 158.934 692.046 158.015 692.198 157.195C692.362 156.385 692.093 155.665 691.392 155.033C690.96 154.652 690.441 154.376 689.835 154.204C689.24 154.044 688.656 154.002 688.081 154.079C688.006 154.184 687.913 154.295 687.804 154.412C687.695 154.529 687.58 154.652 687.46 154.78L683.27 159.241C683.052 159.475 682.85 159.68 682.664 159.857C682.5 160.032 682.308 160.203 682.087 160.369C682.285 160.532 682.472 160.695 682.648 160.859C682.846 161.022 683.044 161.185 683.242 161.348L682.572 162.067L678.99 158.729Z" fill="#3A2B69"/>
<path d="M699.29 162.207L699.173 161.409C699.456 161.376 699.812 161.28 700.243 161.123C700.673 160.965 701.103 160.751 701.534 160.48C701.987 160.21 702.361 159.883 702.656 159.498C702.543 159.453 702.441 159.408 702.351 159.362C702.271 159.305 702.198 159.243 702.13 159.175C701.916 158.96 701.809 158.693 701.809 158.377C701.821 158.071 701.946 157.8 702.185 157.563C702.502 157.247 702.836 157.095 703.187 157.107C703.549 157.13 703.854 157.266 704.102 157.516C704.497 157.913 704.644 158.365 704.541 158.874C704.449 159.372 704.188 159.835 703.757 160.264C703.474 160.547 703.072 160.834 702.551 161.127C702.041 161.432 701.492 161.685 700.903 161.888C700.337 162.09 699.799 162.197 699.29 162.207Z" fill="#3A2B69"/>
<path d="M698.919 178.989C698.667 178.72 698.451 178.407 698.271 178.05C698.078 177.704 697.978 177.305 697.971 176.852C697.974 176.41 698.12 175.923 698.41 175.389C698.711 174.844 699.212 174.244 699.912 173.588L705.027 168.867L703.746 167.534L704.5 166.829C704.796 167.121 705.196 167.327 705.702 167.446C706.219 167.553 706.779 167.555 707.383 167.45C707.997 167.357 708.57 167.15 709.101 166.828L709.659 167.424L707.206 169.72L709.961 172.663L709.278 173.303L706.487 170.392L701.584 174.917C701.058 175.409 700.646 175.87 700.349 176.302C700.075 176.735 699.937 177.137 699.936 177.511C699.935 177.885 700.082 178.229 700.377 178.544C700.683 178.871 701.061 179.088 701.51 179.193C701.97 179.31 702.468 179.327 703.003 179.242L703.06 180.076C702.434 180.18 701.89 180.207 701.427 180.158C700.976 180.121 700.588 180.034 700.264 179.899C699.929 179.775 699.656 179.624 699.447 179.448C699.226 179.282 699.05 179.129 698.919 178.989Z" fill="#3A2B69"/>
<path d="M712.938 194.646L718.184 186.443C718.377 186.146 718.538 185.885 718.666 185.661C718.803 185.448 718.926 185.269 719.034 185.122C719.142 184.974 719.235 184.848 719.316 184.743L718.466 183.794L719.236 183.18L722.407 187.159L721.844 187.608C721.383 187.055 720.94 186.896 720.515 187.133C720.112 187.372 719.69 187.831 719.249 188.51L717.31 191.468C717.09 191.807 716.863 192.152 716.63 192.501C716.409 192.841 716.189 193.18 715.968 193.52C716.396 193.363 716.824 193.206 717.251 193.05C717.701 192.895 718.146 192.735 718.586 192.568L724.891 190.274L725.504 191.043L721.554 197.292C721.359 197.612 721.157 197.936 720.949 198.266C720.741 198.595 720.533 198.925 720.325 199.254C720.68 199.135 721.024 199.014 721.357 198.893C721.712 198.773 722.062 198.648 722.407 198.516L726.96 196.912C727.28 196.8 727.587 196.698 727.882 196.606C728.177 196.514 728.439 196.47 728.666 196.472L727.742 195.429L728.511 194.816L731.115 198.081L730.552 198.53C730.28 198.214 730.021 197.98 729.777 197.827C729.542 197.687 729.307 197.598 729.073 197.56C728.838 197.522 728.598 197.529 728.353 197.581C728.108 197.633 727.843 197.712 727.558 197.816L718.01 201.008L717.411 200.258L721.113 194.391C721.279 194.136 721.438 193.886 721.591 193.642C721.756 193.387 721.915 193.138 722.068 192.893C722.233 192.638 722.392 192.389 722.545 192.144C722.273 192.239 721.994 192.338 721.709 192.443C721.436 192.537 721.157 192.636 720.872 192.741C720.6 192.835 720.321 192.935 720.036 193.039L713.507 195.36L712.938 194.646Z" fill="#3A2B69"/>
<path d="M725.814 212.181C725.165 211.267 724.786 210.291 724.676 209.251C724.578 208.201 724.744 207.191 725.173 206.219C725.624 205.252 726.333 204.425 727.298 203.74C728.329 203.008 729.408 202.566 730.536 202.413C731.663 202.26 732.726 202.389 733.723 202.799C734.734 203.201 735.568 203.864 736.226 204.791C736.874 205.704 737.24 206.69 737.324 207.748C737.422 208.798 737.256 209.808 736.827 210.78C736.398 211.751 735.708 212.575 734.755 213.251C733.75 213.964 732.673 214.395 731.523 214.544C730.396 214.697 729.326 214.573 728.316 214.172C727.305 213.771 726.471 213.107 725.814 212.181ZM726.708 211.782C727.198 212.473 727.783 212.882 728.462 213.009C729.14 213.135 729.853 213.061 730.599 212.786C731.355 212.525 732.079 212.148 732.771 211.657C733.358 211.241 733.89 210.775 734.368 210.259C734.868 209.747 735.263 209.212 735.553 208.653C735.856 208.084 736.01 207.514 736.016 206.941C736.03 206.381 735.852 205.84 735.482 205.318C735 204.64 734.411 204.224 733.714 204.072C733.017 203.919 732.281 203.96 731.507 204.196C730.742 204.445 730 204.824 729.283 205.333C728.474 205.907 727.783 206.565 727.209 207.305C726.649 208.036 726.303 208.792 726.17 209.573C726.038 210.354 726.217 211.09 726.708 211.782Z" fill="#3A2B69"/>
<path d="M732.385 219.822C732.653 220.239 732.941 220.463 733.246 220.494C733.565 220.517 733.915 220.425 734.296 220.218C734.69 220.002 735.129 219.738 735.613 219.426L740.212 216.461C740.427 216.322 740.642 216.184 740.857 216.045C741.081 215.92 741.32 215.803 741.575 215.696C741.406 215.463 741.236 215.23 741.067 214.996C740.919 214.768 740.761 214.537 740.591 214.303L741.418 213.77L741.821 214.395C742.194 214.974 742.504 215.336 742.75 215.481C743.018 215.632 743.268 215.738 743.497 215.799L743.874 216.384C743.677 216.55 743.421 216.743 743.107 216.965C742.806 217.178 742.418 217.447 741.943 217.772C742.409 217.757 742.916 217.821 743.464 217.962C744.012 218.104 744.533 218.32 745.025 218.612C745.526 218.917 745.933 219.312 746.245 219.796C746.488 220.172 746.599 220.567 746.58 220.979C746.56 221.392 746.328 221.741 745.885 222.027C745.777 222.096 745.621 222.15 745.416 222.186C745.225 222.214 745.021 222.194 744.805 222.124C744.602 222.045 744.422 221.885 744.266 221.643C744.089 221.338 744.052 221.029 744.154 220.716C744.27 220.393 744.489 220.157 744.811 220.007C744.607 219.662 744.295 219.369 743.872 219.127C743.459 218.899 742.984 218.738 742.448 218.646C741.926 218.544 741.365 218.516 740.765 218.56L735.816 221.779C735.547 221.952 735.301 222.102 735.077 222.227C734.875 222.357 734.647 222.475 734.392 222.583C734.545 222.789 734.686 222.993 734.816 223.195C734.968 223.401 735.12 223.608 735.272 223.814L734.445 224.347L731.779 220.212L732.385 219.822Z" fill="#3A2B69"/>
<path d="M738.474 230.778L739.095 230.414C739.346 230.842 739.62 231.071 739.916 231.101C740.234 231.137 740.587 231.06 740.976 230.869C741.379 230.67 741.828 230.425 742.325 230.133L752.129 224.41C752.35 224.281 752.557 224.16 752.75 224.046C752.965 223.939 753.219 223.818 753.511 223.683C753.352 223.443 753.192 223.203 753.033 222.962C752.881 222.736 752.726 222.502 752.566 222.262L753.436 221.752C753.792 222.359 754.095 222.812 754.344 223.111C754.594 223.41 754.808 223.618 754.988 223.735C755.176 223.866 755.347 223.951 755.5 223.991L755.853 224.592L746.061 230.335L746.546 231.163L750.678 232.134C751.05 232.231 751.382 232.324 751.675 232.412C751.982 232.492 752.254 232.592 752.491 232.712L751.603 231.341L752.431 230.855L754.641 234.623L754.02 234.987C753.704 234.542 753.293 234.19 752.788 233.93C752.305 233.675 751.803 233.468 751.283 233.309C750.772 233.164 750.312 233.045 749.904 232.95L747.259 232.331C747.297 232.68 747.276 233.008 747.196 233.314C747.116 233.621 747.015 233.939 746.894 234.27L745.872 236.845C745.83 236.962 745.74 237.173 745.603 237.476C745.473 237.793 745.339 238.15 745.201 238.546C745.071 238.957 744.986 239.35 744.946 239.725C744.915 240.115 744.968 240.427 745.106 240.661L744.485 241.025L743.38 239.142C743.153 238.755 743.139 238.272 743.337 237.692C743.534 237.112 743.768 236.484 744.039 235.806C744.325 235.156 744.583 234.568 744.814 234.044C745.066 233.525 745.275 233.059 745.441 232.646C745.615 232.247 745.732 231.91 745.792 231.633L745.253 230.809L742.417 232.472C742.141 232.634 741.889 232.773 741.66 232.888C741.453 233.01 741.22 233.119 740.961 233.215C741.104 233.428 741.241 233.644 741.37 233.865C741.513 234.078 741.657 234.291 741.8 234.503L740.951 235.001L738.474 230.778Z" fill="#3A2B69"/>
<path fill-rule="evenodd" clip-rule="evenodd" d="M69.3039 176.954C75.0679 116.933 125.638 70 187.171 70C248.703 70 299.273 116.933 305.037 176.954H347.052L377.61 447.99H0L30.5585 176.954H69.3039ZM266.575 176.954H107.767C113.328 138.081 146.76 108.199 187.171 108.199C227.582 108.199 261.014 138.081 266.575 176.954Z" fill="#FFF4BD"/>
<path d="M180.757 410.543C167.556 410.543 156.646 408.618 148.029 404.767C139.412 400.734 132.994 395.783 128.777 389.916C124.743 384.049 122.727 378.457 122.727 373.139C122.727 368.922 123.827 365.439 126.027 362.688C128.227 359.755 131.344 358.196 135.378 358.013C138.678 357.83 141.245 358.471 143.079 359.938C145.095 361.222 146.471 362.872 147.204 364.889C147.937 366.906 148.304 368.739 148.304 370.389C148.304 372.223 148.029 374.056 147.479 375.89C146.929 377.723 146.195 379.557 145.279 381.39C147.112 387.624 151.238 392.116 157.655 394.867C164.256 397.617 171.315 398.992 178.832 398.992C191.85 398.992 202.209 395.417 209.91 388.266C217.794 381.115 221.736 370.756 221.736 357.188C221.736 349.12 220.453 341.511 217.886 334.361C215.319 327.027 210.552 321.068 203.584 316.484C196.617 311.9 186.441 309.792 173.056 310.158C171.59 310.158 170.031 310.25 168.381 310.433C166.731 310.433 164.897 310.525 162.88 310.708V298.332C164.897 298.332 166.822 298.332 168.656 298.332C170.49 298.332 172.323 298.332 174.157 298.332C183.874 298.332 191.483 296.132 196.984 291.732C202.484 287.331 206.426 282.106 208.81 276.055C211.193 270.004 212.385 264.412 212.385 259.278C212.385 251.761 211.377 245.069 209.36 239.202C207.526 233.151 204.226 228.475 199.459 225.175C194.692 221.691 188.091 219.95 179.657 219.95C171.406 219.95 164.347 222.15 158.48 226.55C152.613 230.767 148.946 235.168 147.479 239.752C149.129 241.585 150.229 243.419 150.779 245.252C151.513 247.086 151.879 249.011 151.879 251.028C151.879 252.494 151.421 254.236 150.504 256.253C149.771 258.087 148.487 259.645 146.654 260.929C144.82 262.212 142.345 262.854 139.228 262.854C135.378 262.854 132.444 261.479 130.427 258.728C128.41 255.978 127.402 252.678 127.402 248.827C127.402 243.694 129.419 238.101 133.453 232.051C137.486 225.817 143.629 220.5 151.879 216.099C160.314 211.516 170.856 209.224 183.507 209.224C193.408 209.224 202.576 210.782 211.01 213.899C219.444 217.016 226.228 222.15 231.362 229.301C236.496 236.268 239.063 245.527 239.063 257.078C239.063 262.762 237.596 268.538 234.662 274.405C231.912 280.089 227.237 285.406 220.636 290.356C214.219 295.307 205.326 299.524 193.958 303.008C211.377 304.841 225.036 310.433 234.937 319.784C245.022 329.135 250.064 340.961 250.064 355.263C250.064 367.731 246.764 378.09 240.163 386.341C233.746 394.408 225.22 400.459 214.585 404.492C204.134 408.526 192.858 410.543 180.757 410.543Z" fill="#F4B9B8"/>
<path d="M509.324 343.61C509.065 339.456 508.07 335.519 506.339 331.798C504.608 328.077 502.099 325.048 498.81 322.711C495.522 320.375 491.325 319.207 486.219 319.207C480.854 319.207 476.744 320.721 473.888 323.75C471.032 326.779 469.604 330.326 469.604 334.394C469.604 338.028 470.643 341.1 472.72 343.61C474.797 346.033 477.479 348.196 480.768 350.1C484.142 351.917 487.69 353.691 491.411 355.422C494.7 356.893 497.988 358.494 501.276 360.225C504.565 361.869 507.55 363.773 510.233 365.936C512.916 368.099 515.036 370.695 516.593 373.724C518.237 376.666 519.06 380.214 519.06 384.368C519.06 389.127 517.848 393.368 515.425 397.089C513.089 400.81 509.67 403.752 505.171 405.915C500.671 407.992 495.176 409.031 488.686 409.031C484.791 409.031 480.768 408.468 476.614 407.343C472.46 406.218 468.782 404.574 465.58 402.411L466.23 407.992H459.48L458.701 380.344H463.763C464.196 387.959 466.835 393.757 471.681 397.738C476.527 401.632 482.368 403.579 489.205 403.579C492.58 403.579 495.695 402.973 498.551 401.762C501.406 400.464 503.656 398.603 505.3 396.18C507.031 393.757 507.896 390.815 507.896 387.354C507.896 383.459 506.858 380.214 504.781 377.618C502.704 375.022 500.022 372.772 496.733 370.868C493.445 368.965 489.94 367.147 486.219 365.417C482.931 363.946 479.686 362.388 476.484 360.744C473.282 359.1 470.34 357.239 467.657 355.162C465.061 352.999 462.941 350.446 461.297 347.504C459.739 344.562 458.961 341.014 458.961 336.86C458.961 334.61 459.35 332.187 460.129 329.591C460.908 326.995 462.249 324.529 464.153 322.192C466.143 319.769 468.826 317.822 472.2 316.351C475.662 314.793 480.032 314.014 485.311 314.014C488.599 314.014 492.277 314.49 496.344 315.442C500.498 316.308 504.348 318.038 507.896 320.634L507.377 315.053H513.997V343.61H509.324Z" fill="#3A2B69"/>
<path d="M554.428 409.031C552.438 409.031 550.404 408.728 548.327 408.122C546.25 407.603 544.303 406.521 542.486 404.877C540.755 403.233 539.371 400.853 538.332 397.738C537.294 394.536 536.775 390.339 536.775 385.147L537.034 347.504L527.039 347.634V342.052C529.289 341.966 531.583 341.143 533.919 339.586C536.255 337.942 538.332 335.735 540.15 332.966C542.053 330.197 543.351 327.168 544.044 323.88H548.457V342.052H570.264V347.114L548.457 347.374L548.197 383.459C548.197 387.353 548.5 390.685 549.106 393.454C549.798 396.137 550.88 398.17 552.351 399.555C553.822 400.94 555.726 401.632 558.062 401.632C560.485 401.632 562.735 400.94 564.812 399.555C566.976 398.17 568.879 396.267 570.524 393.844L574.028 396.699C572.125 399.555 570.221 401.805 568.317 403.449C566.5 405.093 564.726 406.305 562.995 407.084C561.264 407.949 559.663 408.468 558.192 408.641C556.721 408.901 555.466 409.031 554.428 409.031Z" fill="#3A2B69"/>
<path d="M612.414 409.031C606.356 409.031 600.861 407.646 595.929 404.877C590.996 402.021 587.059 398.127 584.116 393.195C581.261 388.176 579.833 382.464 579.833 376.061C579.833 369.224 581.261 363.08 584.116 357.628C586.972 352.177 590.866 347.893 595.799 344.778C600.731 341.576 606.27 339.975 612.414 339.975C618.471 339.975 623.966 341.446 628.899 344.389C633.831 347.244 637.769 351.138 640.711 356.071C643.653 361.003 645.124 366.628 645.124 372.945C645.124 379.609 643.653 385.709 640.711 391.248C637.855 396.699 633.961 401.026 629.029 404.228C624.096 407.43 618.558 409.031 612.414 409.031ZM613.452 403.839C618.038 403.839 621.673 402.541 624.356 399.944C627.038 397.348 628.942 393.973 630.067 389.82C631.278 385.666 631.884 381.296 631.884 376.71C631.884 372.816 631.495 369.008 630.716 365.287C630.024 361.479 628.899 358.061 627.341 355.032C625.783 351.917 623.75 349.451 621.24 347.634C618.817 345.816 615.875 344.908 612.414 344.908C607.914 344.908 604.236 346.206 601.38 348.802C598.525 351.398 596.405 354.773 595.02 358.927C593.722 363.08 593.073 367.537 593.073 372.296C593.073 377.662 593.808 382.767 595.28 387.613C596.751 392.373 599.001 396.267 602.029 399.295C605.058 402.324 608.866 403.839 613.452 403.839Z" fill="#3A2B69"/>
<path d="M656.152 403.06C658.835 403.06 660.696 402.411 661.734 401.113C662.772 399.728 663.378 397.868 663.551 395.531C663.724 393.108 663.811 390.339 663.811 387.224V357.628C663.811 356.244 663.811 354.859 663.811 353.475C663.897 352.09 664.07 350.662 664.33 349.191C662.772 349.278 661.215 349.364 659.657 349.451C658.186 349.451 656.672 349.494 655.114 349.581V344.259H659.138C662.859 344.259 665.412 343.913 666.796 343.22C668.267 342.441 669.479 341.619 670.431 340.754H674.195C674.368 342.139 674.498 343.869 674.585 345.946C674.671 347.936 674.758 350.489 674.844 353.605C676.142 351.441 677.916 349.321 680.166 347.244C682.416 345.167 684.926 343.437 687.695 342.052C690.55 340.667 693.536 339.975 696.651 339.975C699.074 339.975 701.194 340.624 703.011 341.922C704.829 343.22 705.737 345.297 705.737 348.153C705.737 348.845 705.521 349.71 705.088 350.749C704.656 351.701 703.963 352.566 703.011 353.345C702.06 354.037 700.805 354.383 699.247 354.383C697.343 354.297 695.829 353.561 694.704 352.177C693.579 350.706 693.146 349.018 693.406 347.114C691.243 347.028 688.993 347.59 686.656 348.802C684.406 350.013 682.286 351.701 680.296 353.864C678.306 355.941 676.532 358.407 674.974 361.263L675.104 393.195C675.104 394.925 675.06 396.483 674.974 397.868C674.974 399.166 674.844 400.55 674.585 402.021C675.969 401.935 677.31 401.891 678.608 401.891C679.993 401.805 681.378 401.718 682.762 401.632V406.954H656.152V403.06Z" fill="#3A2B69"/>
<path d="M742.833 409.031C736.862 409.031 731.453 407.646 726.607 404.877C721.848 402.021 718.084 398.041 715.314 392.935C712.545 387.743 711.161 381.642 711.161 374.633C711.161 368.575 712.502 362.907 715.185 357.628C717.954 352.35 721.805 348.11 726.737 344.908C731.67 341.619 737.381 339.975 743.871 339.975C747.506 339.975 750.881 340.581 753.996 341.792C757.198 342.917 760.01 344.691 762.433 347.114C764.856 349.451 766.76 352.436 768.144 356.071C769.529 359.619 770.221 363.816 770.221 368.662L724.53 369.441C724.53 376.017 725.223 381.815 726.607 386.834C728.078 391.767 730.415 395.618 733.617 398.387C736.819 401.069 740.929 402.411 745.948 402.411C748.631 402.411 751.357 401.935 754.126 400.983C756.981 400.031 759.621 398.733 762.044 397.089C764.467 395.445 766.414 393.627 767.885 391.637L771 394.233C768.664 397.868 765.851 400.767 762.563 402.93C759.275 405.093 755.9 406.651 752.438 407.603C748.977 408.555 745.775 409.031 742.833 409.031ZM724.92 363.989H758.02C758.02 360.874 757.544 357.888 756.592 355.032C755.727 352.09 754.255 349.71 752.179 347.893C750.102 345.989 747.376 345.038 744.001 345.038C738.982 345.038 734.785 346.552 731.41 349.581C728.122 352.523 725.958 357.326 724.92 363.989Z" fill="#3A2B69"/>
<path d="M281.498 403.06C284.181 403.06 286.041 402.411 287.079 401.113C288.118 399.728 288.724 397.868 288.897 395.531C289.07 393.108 289.156 390.339 289.156 387.224V357.628C289.156 356.244 289.156 354.859 289.156 353.475C289.243 352.09 289.416 350.662 289.676 349.191C288.118 349.278 286.56 349.364 285.003 349.451C283.531 349.451 282.017 349.494 280.459 349.581V344.259H284.483C288.204 344.259 290.757 343.913 292.142 343.22C293.613 342.441 294.824 341.619 295.776 340.754H299.541C299.714 342.139 299.843 343.869 299.93 345.946C300.017 347.936 300.103 350.489 300.19 353.605C301.488 351.441 303.262 349.321 305.512 347.244C307.761 345.167 310.271 343.437 313.04 342.052C315.896 340.667 318.881 339.975 321.997 339.975C324.42 339.975 326.54 340.624 328.357 341.922C330.174 343.22 331.083 345.297 331.083 348.153C331.083 348.845 330.867 349.71 330.434 350.749C330.001 351.701 329.309 352.566 328.357 353.345C327.405 354.037 326.15 354.383 324.593 354.383C322.689 354.297 321.175 353.561 320.05 352.177C318.925 350.706 318.492 349.018 318.752 347.114C316.588 347.028 314.338 347.59 312.002 348.802C309.752 350.013 307.632 351.701 305.641 353.864C303.651 355.941 301.877 358.407 300.319 361.263L300.449 393.195C300.449 394.925 300.406 396.483 300.319 397.868C300.319 399.166 300.19 400.55 299.93 402.021C301.315 401.935 302.656 401.891 303.954 401.891C305.338 401.805 306.723 401.718 308.108 401.632V406.954H281.498V403.06Z" fill="#3A2B69"/>
<path d="M364.544 409.031C359.265 409.031 354.506 407.733 350.265 405.137C346.025 402.454 342.65 398.646 340.141 393.714C337.718 388.781 336.506 382.983 336.506 376.32C336.506 369.224 337.934 362.95 340.79 357.499C343.645 352.047 347.583 347.763 352.602 344.648C357.707 341.533 363.462 339.975 369.866 339.975C372.721 339.975 375.534 340.365 378.303 341.143C381.159 341.836 383.409 342.658 385.053 343.61V325.827C385.053 324.442 385.053 323.144 385.053 321.933C385.139 320.634 385.269 319.12 385.442 317.389C383.885 317.476 382.327 317.562 380.769 317.649C379.298 317.736 377.784 317.822 376.226 317.909V312.457C380.034 312.457 382.976 312.284 385.053 311.938C387.13 311.591 388.687 311.159 389.726 310.64C390.851 310.12 391.716 309.558 392.322 308.952H396.086V393.195C396.086 394.579 396.043 395.964 395.956 397.348C395.87 398.733 395.74 400.291 395.567 402.021C397.124 401.935 398.639 401.848 400.11 401.762C401.668 401.675 403.225 401.589 404.783 401.502V406.954H386.221C385.961 405.656 385.745 404.488 385.572 403.449C385.485 402.324 385.399 401.242 385.312 400.204C382.889 402.887 379.904 405.05 376.356 406.694C372.808 408.252 368.871 409.031 364.544 409.031ZM369.217 402.67C372.072 402.67 374.928 401.848 377.784 400.204C380.726 398.56 383.149 396.526 385.053 394.103C384.966 393.065 384.923 391.983 384.923 390.858C384.923 389.647 384.923 388.349 384.923 386.964L385.053 349.581C382.976 348.023 380.683 346.898 378.173 346.206C375.75 345.427 373.241 345.038 370.645 345.038C366.318 345.038 362.553 346.292 359.352 348.802C356.15 351.311 353.727 354.816 352.083 359.316C350.438 363.816 349.703 369.094 349.876 375.152C350.049 380.431 350.871 385.147 352.342 389.301C353.9 393.454 356.063 396.743 358.832 399.166C361.688 401.502 365.15 402.67 369.217 402.67Z" fill="#3A2B69"/>
<path d="M640.831 141.411C654.336 153.791 671.919 161.331 685.93 173.315C691.631 178.19 707.175 191.583 690.44 180.164C677.43 171.286 665.971 160.88 655.029 149.596C651.484 145.941 657.555 148.871 658.703 149.596C665.375 153.809 672.454 157.353 679.082 161.623C680.657 162.637 691.276 167.794 691.276 169.64C691.276 170.034 676.974 161.915 676.075 161.288C668.194 155.798 644.175 139.881 652.022 145.42C661.595 152.177 670.303 159.439 678.414 167.803C684.065 173.631 661.083 161.032 658.871 159.451" stroke="#FFF4BD" stroke-width="3" stroke-linecap="round"/>
</svg>
