<svg width="1902" height="448" viewBox="0 0 1902 448" fill="none" xmlns="http://www.w3.org/2000/svg">
<rect x="-602" y="23.0005" width="3119.76" height="424.825" fill="#73E2E0"/>
<path d="M884.273 133.572C884.791 131.64 887.071 131.197 888.533 130.139C889.788 129.23 891.375 129.272 892.684 128.473C894.042 127.644 895.214 126.85 896.718 126.299C898.939 125.485 900.908 124.06 903.174 123.257C905.697 122.364 908.331 121.85 910.879 121C914.565 119.771 918.704 118.135 922.495 117.658C927.631 117.012 930.926 112.36 935.095 109.808C938.972 107.435 944.419 104.107 949.13 104.981C951.42 105.406 953.786 105.201 956.052 104.703C958.699 104.121 961.456 104.119 964.063 103.398C965.743 102.933 968.982 100.907 970.749 101.176C972.353 101.42 973.835 100.992 975.531 101.447C979.216 102.434 983.197 103.55 987.011 103.119C991.835 102.574 996.475 98.222 1001.11 96.7941C1007.6 94.7945 1014.78 95.3104 1021.52 94.5729C1024.83 94.2106 1028.07 93.7099 1031.42 93.4375C1032.54 93.3461 1033.61 93.7518 1034.67 94.084C1038.5 95.2791 1042.33 96.5124 1046.15 97.749C1050.12 99.0348 1054.77 101.383 1059.09 100.571C1061.65 100.089 1064.07 99.7779 1066.65 99.5931C1071.55 99.2422 1077.3 96.9847 1082.18 98.1973C1086.53 99.2788 1091.03 99.5593 1095.37 100.721C1098.32 101.514 1101.37 102.582 1104.4 103.029C1107.97 103.556 1111.56 104.121 1115.19 104.237C1118.34 104.337 1122.62 103.131 1125.64 103.781C1131.24 104.985 1137.32 105.176 1142.78 106.858C1145.57 107.717 1147.41 111.996 1149.87 113.697C1153.51 116.221 1157.12 118.908 1161.06 120.961C1163.35 122.158 1165.81 123.149 1167.08 125.52C1169.06 129.222 1171.26 133.163 1174.22 136.162C1177.1 139.087 1182.86 139.928 1186.56 141.432C1192.03 143.659 1197.92 144.871 1203.63 146.402C1207.43 147.418 1209.31 150.555 1212.03 153.197C1217.13 158.142 1223.29 161.392 1229.38 164.918C1231.6 166.207 1234.07 167.234 1236.41 168.317C1237.96 169.038 1239.35 170.488 1240.88 171.424C1244.46 173.61 1248.29 177.343 1251.19 180.474C1253.73 183.205 1254.98 187.272 1256.98 190.106C1259.4 193.543 1262.43 196.022 1264.64 199.625C1266.71 203.001 1270.87 205.571 1274.07 207.819C1280.92 212.639 1288.48 217.074 1292.74 224.441C1293.8 226.277 1293.83 228.479 1294.91 230.356C1296.09 232.393 1297.48 235.148 1298.08 237.38C1298.92 240.477 1299.58 242.986 1300.2 246.03C1300.95 249.716 1303.5 250.862 1300.53 254.202" stroke="#F4B9B8" stroke-width="11" stroke-linecap="round"/>
<path d="M873.605 119.827L873.215 119.138C873.736 118.825 874.032 118.502 874.101 118.168C874.162 117.821 874.09 117.449 873.883 117.051C873.683 116.631 873.437 116.164 873.146 115.648L868.188 106.872C867.975 106.496 867.801 106.172 867.665 105.899C867.522 105.613 867.406 105.375 867.318 105.186C867.075 105.341 866.832 105.497 866.589 105.653C866.346 105.808 866.103 105.964 865.86 106.119L865.341 105.2C866.099 104.753 866.861 104.313 867.628 103.881C868.4 103.426 869.204 102.962 870.04 102.49C871.656 101.577 873.078 101.151 874.306 101.21C875.548 101.262 876.505 101.916 877.178 103.171C877.43 103.617 877.549 104.137 877.536 104.733C877.538 105.32 877.379 105.934 877.06 106.573C876.747 107.191 876.247 107.786 875.56 108.358L875.584 108.4C877.116 107.534 878.473 107.236 879.654 107.506C880.828 107.761 881.718 108.426 882.324 109.498C882.804 110.348 883.001 111.201 882.916 112.058C882.83 112.915 882.512 113.719 881.963 114.471C881.406 115.208 880.653 115.845 879.706 116.38L873.605 119.827ZM876.329 117.185C876.56 117.073 876.833 116.937 877.147 116.778C877.467 116.597 877.76 116.432 878.025 116.282C878.303 116.125 878.484 116.023 878.568 115.976C879.641 115.37 880.355 114.617 880.71 113.718C881.072 112.797 880.958 111.814 880.368 110.769C879.888 109.919 879.347 109.352 878.745 109.067C878.143 108.782 877.515 108.696 876.862 108.808C876.208 108.92 875.561 109.157 874.92 109.519C874.502 109.755 874.123 109.978 873.783 110.189C873.448 110.378 873.122 110.581 872.803 110.797L875.471 115.52C875.684 115.896 875.858 116.22 875.993 116.493C876.143 116.757 876.255 116.988 876.329 117.185ZM872.343 109.982L873.845 109.079C874.631 108.616 875.167 108.102 875.454 107.536C875.732 106.956 875.836 106.374 875.763 105.79C875.704 105.198 875.522 104.649 875.217 104.141C874.778 103.397 874.282 102.924 873.727 102.723C873.186 102.514 872.64 102.473 872.087 102.601C871.535 102.73 871.029 102.924 870.569 103.183C870.109 103.443 869.804 103.699 869.652 103.95C869.499 104.201 869.471 104.493 869.567 104.825C869.663 105.157 869.856 105.58 870.147 106.096L872.343 109.982Z" fill="#836EC4"/>
<path d="M892.682 109.986C891.695 110.482 890.687 110.703 889.657 110.648C888.633 110.571 887.681 110.226 886.799 109.613C885.911 108.985 885.175 108.093 884.593 106.935C884.09 105.934 883.84 104.886 883.845 103.792C883.864 102.69 884.148 101.669 884.697 100.731C885.239 99.7779 886.045 99.0319 887.118 98.4928C887.718 98.1909 888.326 98.0106 888.941 97.952C889.563 97.8719 890.175 97.9313 890.777 98.1303C891.371 98.315 891.934 98.6501 892.464 99.1354C892.988 99.6065 893.45 100.242 893.853 101.043L886.37 104.967C886.916 106.053 887.512 106.953 888.158 107.667C888.811 108.36 889.516 108.802 890.275 108.993C891.027 109.171 891.817 109.051 892.647 108.634C893.09 108.411 893.5 108.106 893.879 107.719C894.271 107.324 894.6 106.891 894.863 106.418C895.127 105.945 895.298 105.483 895.375 105.032L896.106 105.202C896.022 105.997 895.798 106.709 895.434 107.34C895.071 107.97 894.643 108.508 894.15 108.952C893.657 109.397 893.168 109.742 892.682 109.986ZM885.982 104.034L891.449 101.284C891.191 100.77 890.864 100.316 890.47 99.9235C890.082 99.5093 889.642 99.2384 889.148 99.1107C888.646 98.9688 888.117 99.0379 887.559 99.3182C886.73 99.7351 886.163 100.334 885.857 101.115C885.558 101.874 885.6 102.847 885.982 104.034Z" fill="#836EC4"/>
<path d="M906.411 103.544C905.432 103.982 904.428 104.167 903.4 104.101C902.38 104.013 901.435 103.664 900.566 103.053C899.706 102.421 899.011 101.513 898.483 100.33C898.144 99.5702 897.953 98.7705 897.911 97.9307C897.869 97.0909 897.969 96.2751 898.211 95.4835C898.461 94.6708 898.862 93.9398 899.413 93.2907C899.964 92.6415 900.664 92.1276 901.511 91.7492C902.329 91.3838 903.093 91.1916 903.803 91.1724C904.527 91.1467 905.149 91.2634 905.668 91.5224C906.186 91.7813 906.553 92.1519 906.769 92.634C906.912 92.9554 906.949 93.2721 906.878 93.5842C906.8 93.8816 906.594 94.1053 906.258 94.2554C905.899 94.4331 905.587 94.441 905.322 94.279C905.065 94.0959 904.894 93.9094 904.809 93.7195C904.744 93.5734 904.7 93.4175 904.679 93.2519C904.651 93.0716 904.674 92.8863 904.746 92.6961C904.473 92.3977 904.154 92.2334 903.79 92.2032C903.42 92.1584 903.064 92.1858 902.723 92.2855C902.39 92.3641 902.121 92.4491 901.917 92.5404C900.923 92.9841 900.263 93.761 899.935 94.8712C899.615 95.9602 899.795 97.2644 900.473 98.7838C900.911 99.7626 901.452 100.563 902.098 101.186C902.759 101.802 903.472 102.202 904.238 102.386C904.996 102.555 905.749 102.473 906.494 102.141C907.18 101.834 907.756 101.358 908.221 100.712C908.686 100.066 908.977 99.402 909.092 98.7194L909.858 98.9032C909.752 99.6865 909.514 100.389 909.143 101.01C908.787 101.625 908.363 102.147 907.871 102.577C907.394 103 906.908 103.323 906.411 103.544Z" fill="#836EC4"/>
<path d="M920.834 97.1823C920.69 96.9469 920.572 96.7353 920.481 96.5477C920.39 96.36 920.288 96.1679 920.177 95.9712C919.87 96.6768 919.477 97.2957 918.999 97.8281C918.53 98.3397 917.968 98.7246 917.313 98.9827C916.182 99.4286 915.241 99.507 914.491 99.2179C913.735 98.914 913.21 98.3899 912.917 97.6456C912.647 96.9608 912.624 96.2907 912.847 95.6352C913.079 94.959 913.469 94.3326 914.015 93.756C914.571 93.1586 915.214 92.6301 915.944 92.1703C916.683 91.6898 917.428 91.3103 918.178 91.0319L917.633 89.6475C917.427 89.1265 917.189 88.6529 916.918 88.2266C916.647 87.8003 916.304 87.497 915.889 87.3166C915.474 87.1362 914.936 87.1677 914.275 87.4109C913.837 87.5661 913.423 87.824 913.032 88.1845C912.656 88.5391 912.449 88.9733 912.41 89.4872C912.576 89.5593 912.706 89.6714 912.801 89.8234C912.904 89.9547 912.982 90.0873 913.035 90.2212C913.105 90.3999 913.113 90.6376 913.058 90.9344C912.997 91.2164 912.778 91.4233 912.4 91.555C912.087 91.6782 911.808 91.6679 911.562 91.524C911.31 91.3653 911.126 91.137 911.008 90.8393C910.809 90.3332 910.816 89.8059 911.03 89.2573C911.258 88.7028 911.661 88.1745 912.237 87.6724C912.813 87.1702 913.525 86.7519 914.374 86.4175C915.624 85.9248 916.679 85.896 917.538 86.3312C918.392 86.7515 919.093 87.6791 919.641 89.114C919.858 89.6648 920.078 90.223 920.301 90.7886C920.518 91.3394 920.731 91.9006 920.939 92.4721C921.156 93.0229 921.376 93.5811 921.599 94.1467C921.692 94.3849 921.779 94.626 921.858 94.87C921.937 95.1141 922.02 95.3908 922.108 95.7003C922.37 95.5798 922.624 95.4622 922.872 95.3476C923.134 95.2271 923.396 95.1067 923.658 94.9862L924.027 95.924L920.834 97.1823ZM918.478 91.791C917.977 92.0054 917.468 92.2835 916.949 92.6256C916.439 92.9468 915.99 93.313 915.602 93.724C915.229 94.1291 914.966 94.5764 914.815 95.0659C914.673 95.5346 914.712 96.0265 914.932 96.5417C915.179 97.0807 915.522 97.4271 915.961 97.5809C916.409 97.7139 916.864 97.6895 917.325 97.5076C917.936 97.2671 918.42 96.9472 918.779 96.5479C919.146 96.1279 919.471 95.6215 919.753 95.0287C919.674 94.8708 919.596 94.6951 919.52 94.5016C919.444 94.3081 919.364 94.1071 919.282 93.8987C919.253 93.8243 919.159 93.5861 919.001 93.1842C918.857 92.7764 918.683 92.312 918.478 91.791Z" fill="#836EC4"/>
<path d="M932.327 93.4502C931.509 93.7288 930.768 93.8121 930.105 93.7C929.456 93.5829 928.864 93.2098 928.329 92.5808C927.809 91.9467 927.337 91.0087 926.914 89.7667L925.537 85.7229C925.454 85.4806 925.371 85.2382 925.289 84.9959C925.222 84.7484 925.167 84.4882 925.124 84.2153C924.872 84.3181 924.612 84.4235 924.345 84.5315C924.087 84.6192 923.832 84.7145 923.58 84.8174L923.263 83.8859L923.967 83.646C924.618 83.4242 925.067 83.2037 925.314 82.9845C925.57 82.745 925.756 82.5212 925.871 82.313L926.53 82.0885L928.89 89.0176C929.334 90.3201 929.848 91.2351 930.433 91.7625C931.029 92.2697 931.771 92.3635 932.659 92.044C933.229 91.8328 933.715 91.4729 934.117 90.9643C934.528 90.4354 934.813 89.882 934.971 89.3041L932.982 83.4656C932.859 83.1021 932.76 82.789 932.688 82.5264C932.61 82.2486 932.55 81.9732 932.508 81.7003C932.24 81.8083 931.973 81.9163 931.705 82.0243C931.433 82.1172 931.163 82.2176 930.895 82.3256L930.578 81.3941L931.282 81.1543C931.934 80.9324 932.382 80.7119 932.629 80.4927C932.885 80.2532 933.071 80.0294 933.186 79.8212L933.845 79.5968L936.747 88.192C936.83 88.4343 936.938 88.7777 937.073 89.2221C937.207 89.6664 937.311 90.0452 937.384 90.3585C937.651 90.2505 937.919 90.1425 938.186 90.0345C938.454 89.9264 938.721 89.8184 938.989 89.7104L939.314 90.6646L936.065 91.7712C935.932 91.5292 935.811 91.2998 935.704 91.0829C935.611 90.8609 935.524 90.654 935.442 90.4623C935.132 91.0917 934.703 91.6941 934.156 92.2694C933.603 92.8296 932.993 93.2232 932.327 93.4502Z" fill="#836EC4"/>
<path d="M947.389 88.7295C946.621 88.9525 945.906 89.0433 945.244 89.0021C944.587 88.9763 944.028 88.8885 943.568 88.7387L943.895 89.5187L942.926 89.7996L941.638 85.8753L942.352 85.6679C942.566 86.289 942.908 86.8063 943.377 87.2197C943.843 87.6178 944.369 87.8816 944.956 88.011C945.544 88.1405 946.129 88.1205 946.713 87.951C947.113 87.8351 947.487 87.6599 947.835 87.4255C948.179 87.1757 948.444 86.8823 948.629 86.5453C948.81 86.1929 948.841 85.8093 948.72 85.3944C948.595 84.9641 948.362 84.6486 948.021 84.4478C947.69 84.2272 947.286 84.0695 946.809 83.9748C946.332 83.8801 945.828 83.8096 945.298 83.7635C944.784 83.7129 944.267 83.6545 943.748 83.5886C943.229 83.5226 942.73 83.4092 942.25 83.2486C941.786 83.0835 941.38 82.8346 941.034 82.502C940.687 82.1693 940.429 81.7111 940.26 81.1272C940.166 80.8045 940.125 80.4332 940.137 80.0134C940.148 79.5936 940.251 79.1723 940.445 78.7495C940.634 78.3113 940.951 77.9111 941.396 77.5489C941.836 77.1712 942.448 76.8687 943.231 76.6413C943.646 76.5209 944.127 76.4563 944.675 76.4474C945.222 76.4386 945.789 76.5571 946.377 76.803L946.077 75.9405L947.045 75.6596L948.215 79.6932L947.478 79.9072C947.291 79.3783 947.019 78.8993 946.661 78.47C946.299 78.0253 945.863 77.7018 945.355 77.4995C944.842 77.2819 944.255 77.2689 943.594 77.4607C942.887 77.6658 942.385 78.003 942.088 78.4724C941.792 78.9417 941.71 79.4069 941.844 79.8679C941.982 80.3442 942.244 80.7014 942.629 80.9394C943.026 81.1575 943.496 81.3127 944.039 81.405C944.582 81.4972 945.154 81.5729 945.754 81.6319C946.41 81.7083 947.056 81.8123 947.694 81.9437C948.332 82.0751 948.892 82.3124 949.375 82.6554C949.853 82.9831 950.193 83.4927 950.393 84.1842C950.616 84.9525 950.602 85.6481 950.349 86.2712C950.112 86.8897 949.72 87.4034 949.172 87.8123C948.644 88.232 948.05 88.5378 947.389 88.7295Z" fill="#836EC4"/>
<path d="M961.308 85.0775C960.235 85.3375 959.203 85.3243 958.211 85.0378C957.232 84.7319 956.382 84.1806 955.662 83.3838C954.938 82.5714 954.424 81.5354 954.118 80.2759C953.854 79.1874 953.849 78.1105 954.101 77.0451C954.368 75.976 954.876 75.0463 955.623 74.2561C956.366 73.4504 957.32 72.9062 958.487 72.6235C959.14 72.4652 959.773 72.4271 960.385 72.5091C961.009 72.5718 961.592 72.7681 962.133 73.0979C962.67 73.4122 963.142 73.8658 963.549 74.4586C963.953 75.0358 964.26 75.7598 964.471 76.6306L956.295 78.7606C956.581 79.9424 956.958 80.9541 957.425 81.7956C957.905 82.6179 958.492 83.2081 959.188 83.5662C959.88 83.9088 960.677 83.9708 961.579 83.7522C962.061 83.6354 962.53 83.4311 962.986 83.1395C963.458 82.844 963.876 82.4958 964.24 82.0949C964.603 81.6939 964.874 81.2825 965.052 80.8608L965.725 81.1916C965.463 81.9465 965.084 82.5899 964.587 83.1219C964.091 83.6538 963.552 84.0807 962.972 84.4025C962.391 84.7243 961.836 84.9493 961.308 85.0775ZM956.127 77.764L962.075 76.3223C961.939 75.7626 961.724 75.2468 961.428 74.7751C961.145 74.2841 960.777 73.9206 960.324 73.6845C959.868 73.4329 959.337 73.3805 958.73 73.5275C957.829 73.7461 957.14 74.2011 956.666 74.8923C956.203 75.5642 956.023 76.5215 956.127 77.764Z" fill="#836EC4"/>
<path d="M984.238 80.4837C983.875 80.5445 983.495 80.5514 983.098 80.5043C982.703 80.473 982.315 80.3352 981.933 80.0909C981.568 79.8439 981.243 79.4522 980.958 78.9159C980.671 78.3637 980.448 77.6142 980.29 76.6674L979.188 69.795L977.369 70.1239L977.198 69.106C977.606 69.0215 977.999 68.8016 978.378 68.4462C978.754 68.0751 979.065 67.6092 979.312 67.0488C979.574 66.4857 979.719 65.8937 979.744 65.273L980.549 65.1382L981.104 68.4521L985.081 67.7862L985.235 68.7094L981.267 69.4226L982.321 76.0109C982.44 76.721 982.597 77.3193 982.792 77.8058C983 78.2738 983.259 78.6116 983.57 78.8192C983.88 79.0268 984.249 79.0949 984.675 79.0235C985.117 78.9496 985.506 78.7546 985.842 78.4387C986.195 78.1202 986.484 77.7149 986.709 77.2228L987.436 77.6366C987.176 78.2155 986.897 78.6839 986.6 79.0418C986.319 79.3971 986.033 79.6722 985.741 79.8671C985.452 80.0777 985.176 80.2213 984.913 80.2978C984.652 80.39 984.427 80.452 984.238 80.4837Z" fill="#836EC4"/>
<path d="M999.038 77.3109C999.53 77.2503 999.857 77.0892 1000.02 76.8275C1000.18 76.55 1000.25 76.1948 1000.23 75.7622C1000.2 75.3136 1000.16 74.8035 1000.09 74.2318L999.674 70.897C999.506 69.5313 999.158 68.5344 998.629 67.9063C998.116 67.2763 997.392 67.0269 996.457 67.1581C995.872 67.2463 995.31 67.4606 994.771 67.801C994.249 68.1394 993.839 68.5444 993.543 69.0162L994.408 76.0432C994.447 76.3608 994.474 76.6476 994.49 76.9036C994.503 77.1438 994.503 77.4018 994.488 77.6776C994.74 77.6304 994.986 77.5922 995.224 77.5629C995.476 77.5157 995.728 77.4685 995.98 77.4214L996.1 78.398L991.241 78.9963L991.153 78.2817C991.645 78.2211 991.972 78.0599 992.133 77.7983C992.293 77.5207 992.362 77.1656 992.341 76.7329C992.334 76.2824 992.295 75.7713 992.224 75.1997L990.837 63.9327C990.806 63.6787 990.777 63.4405 990.749 63.2181C990.736 62.978 990.725 62.6971 990.718 62.3756C990.434 62.4267 990.15 62.4778 989.866 62.5289C989.598 62.578 989.322 62.6281 989.039 62.6791L988.915 61.6787C989.614 61.5927 990.15 61.4944 990.523 61.384C990.913 61.2716 991.197 61.156 991.375 61.0373C991.57 60.9166 991.716 60.7938 991.814 60.6689L992.504 60.5839L993.399 67.849C993.711 67.5043 994.068 67.1944 994.469 66.9193C994.885 66.6263 995.314 66.38 995.757 66.1804C996.216 65.9788 996.667 65.8507 997.112 65.7959C998.493 65.6258 999.54 65.9403 1000.25 66.7394C1000.98 67.5207 1001.46 68.8235 1001.7 70.6477L1002.27 75.0753C1002.31 75.3929 1002.33 75.6797 1002.35 75.9358C1002.38 76.174 1002.39 76.431 1002.37 76.7068C1002.62 76.6597 1002.87 76.6214 1003.11 76.5921C1003.36 76.5449 1003.61 76.4978 1003.86 76.4506L1003.98 77.4272L999.125 78.0255L999.038 77.3109Z" fill="#836EC4"/>
<path d="M1013.13 77.1234C1012.03 77.2051 1011.01 77.0239 1010.08 76.5797C1009.16 76.1184 1008.42 75.436 1007.84 74.5325C1007.25 73.6131 1006.92 72.5072 1006.82 71.2147C1006.74 70.0978 1006.91 69.0343 1007.33 68.0242C1007.77 67.013 1008.42 66.1784 1009.28 65.5204C1010.15 64.8465 1011.18 64.4651 1012.38 64.3762C1013.05 64.3264 1013.68 64.3919 1014.27 64.5726C1014.87 64.7362 1015.42 65.0247 1015.9 65.4383C1016.37 65.8359 1016.77 66.3603 1017.07 67.0115C1017.38 67.6467 1017.56 68.4111 1017.63 69.3047L1009.21 70.0742C1009.3 71.2869 1009.51 72.3464 1009.83 73.2529C1010.17 74.1422 1010.66 74.8203 1011.29 75.287C1011.91 75.7378 1012.69 75.9288 1013.61 75.86C1014.11 75.8233 1014.6 75.6982 1015.1 75.4847C1015.62 75.2701 1016.08 74.9946 1016.51 74.6582C1016.93 74.3219 1017.27 73.9601 1017.51 73.573L1018.12 74.009C1017.74 74.7112 1017.26 75.2842 1016.68 75.7282C1016.11 76.1721 1015.51 76.5056 1014.88 76.7285C1014.26 76.9514 1013.67 77.083 1013.13 77.1234ZM1009.21 69.0636L1015.31 68.6102C1015.27 68.0358 1015.14 67.4918 1014.93 66.9783C1014.73 66.4477 1014.42 66.029 1014.02 65.7224C1013.61 65.3998 1013.09 65.2616 1012.47 65.3079C1011.54 65.3766 1010.79 65.7134 1010.21 66.318C1009.64 66.9056 1009.31 67.8208 1009.21 69.0636Z" fill="#836EC4"/>
<path d="M1033.47 63.4469C1033.46 61.6709 1033.77 60.2698 1034.41 59.2436C1035.06 58.2173 1036.18 57.7014 1037.77 57.6958C1038.12 57.6946 1038.49 57.7573 1038.87 57.884C1039.27 57.9946 1039.62 58.1854 1039.9 58.4564C1040.19 58.7114 1040.34 59.0468 1040.34 59.4628C1040.34 59.7668 1040.25 60.0232 1040.08 60.2318C1039.92 60.4403 1039.68 60.5452 1039.36 60.5463C1038.98 60.5636 1038.7 60.4526 1038.54 60.2131C1038.4 59.9576 1038.32 59.7419 1038.32 59.5659C1038.32 59.4699 1038.33 59.3739 1038.35 59.2778C1038.36 59.1818 1038.39 59.0776 1038.44 58.9655C1038.33 58.8219 1038.17 58.7184 1037.96 58.6552C1037.77 58.5918 1037.58 58.5605 1037.41 58.5611C1036.91 58.5628 1036.53 58.7082 1036.26 58.9971C1035.99 59.2861 1035.8 59.6467 1035.69 60.0791C1035.58 60.5115 1035.52 60.9597 1035.52 61.4237L1035.53 63.9437L1038.77 63.9324L1038.77 64.8684L1035.54 64.9517L1035.59 73.3995C1035.59 73.7195 1035.58 74.0076 1035.57 74.2636C1035.57 74.5036 1035.55 74.7597 1035.5 75.0319C1035.75 75.015 1036 75.0061 1036.24 75.0053C1036.5 74.9884 1036.75 74.9715 1037.01 74.9546L1037.01 75.9386L1032.12 75.9557L1032.12 75.2357C1032.61 75.234 1032.95 75.1128 1033.15 74.8721C1033.34 74.6154 1033.45 74.271 1033.48 73.8389C1033.51 73.3908 1033.52 72.8788 1033.52 72.3028L1033.47 64.9829L1031.5 65.0378L1031.5 63.9578L1033.47 63.9509L1033.47 63.4469Z" fill="#836EC4"/>
<path d="M1043.18 75.3066C1043.68 75.3208 1044.02 75.2108 1044.22 74.9764C1044.42 74.726 1044.54 74.3854 1044.59 73.9545C1044.63 73.5076 1044.66 72.9962 1044.68 72.4205L1044.84 66.9507C1044.84 66.6948 1044.86 66.4552 1044.88 66.2317C1044.9 65.9923 1044.94 65.7131 1044.98 65.3941C1044.69 65.4019 1044.4 65.4096 1044.11 65.4173C1043.84 65.4255 1043.56 65.4334 1043.27 65.4411L1043.3 64.4336C1044 64.4538 1044.55 64.4374 1044.94 64.3845C1045.32 64.3315 1045.61 64.2599 1045.81 64.1694C1046.02 64.0794 1046.18 63.9801 1046.29 63.8713L1046.99 63.8913L1046.71 73.5833C1046.7 73.9032 1046.69 74.1908 1046.66 74.4463C1046.66 74.6862 1046.62 74.9414 1046.57 75.2119C1046.83 75.2033 1047.07 75.2024 1047.31 75.2093C1047.57 75.2006 1047.83 75.192 1048.08 75.1834L1048.05 76.167L1043.16 76.0263L1043.18 75.3066ZM1045.91 61.4832C1045.57 61.4736 1045.28 61.3291 1045.03 61.0499C1044.78 60.7706 1044.66 60.4311 1044.68 60.0312C1044.69 59.6314 1044.83 59.2992 1045.09 59.0347C1045.37 58.7546 1045.68 58.6194 1046.01 58.6291C1046.38 58.6397 1046.68 58.7923 1046.91 59.0871C1047.16 59.3663 1047.28 59.7059 1047.27 60.1057C1047.26 60.5056 1047.11 60.8375 1046.83 61.1016C1046.57 61.3661 1046.26 61.4933 1045.91 61.4832Z" fill="#836EC4"/>
<path d="M1052.72 75.6566C1053.22 75.688 1053.57 75.5901 1053.78 75.3627C1053.98 75.1194 1054.12 74.7832 1054.18 74.3541C1054.24 73.909 1054.28 73.3991 1054.32 72.8242L1054.67 67.3632C1054.68 67.1078 1054.7 66.8523 1054.72 66.5968C1054.75 66.3423 1054.8 66.0809 1054.86 65.8125C1054.57 65.8102 1054.29 65.8079 1054 65.8056C1053.73 65.7883 1053.45 65.7786 1053.16 65.7763L1053.22 64.7943L1053.96 64.8414C1054.65 64.8851 1055.12 64.8511 1055.39 64.7396C1055.67 64.6131 1055.9 64.4756 1056.09 64.3271L1056.78 64.3713C1056.8 64.6288 1056.8 64.9496 1056.79 65.3339C1056.79 65.7022 1056.77 66.1742 1056.75 66.7501C1057.02 66.3661 1057.37 65.9957 1057.81 65.6388C1058.25 65.282 1058.73 64.9921 1059.26 64.769C1059.8 64.547 1060.36 64.4543 1060.93 64.4908C1061.38 64.5192 1061.77 64.6638 1062.09 64.9246C1062.41 65.1855 1062.55 65.5793 1062.52 66.1063C1062.51 66.234 1062.46 66.3912 1062.37 66.5777C1062.27 66.7483 1062.14 66.8998 1061.95 67.0324C1061.77 67.149 1061.53 67.1981 1061.24 67.1799C1060.89 67.1416 1060.62 66.9881 1060.43 66.7194C1060.24 66.4348 1060.18 66.1183 1060.25 65.7701C1059.85 65.7288 1059.43 65.8062 1058.99 66.0023C1058.56 66.1995 1058.15 66.486 1057.75 66.8619C1057.36 67.2218 1057.01 67.6561 1056.69 68.1648L1056.33 74.0584C1056.31 74.3778 1056.29 74.6647 1056.26 74.9191C1056.24 75.1587 1056.2 75.4126 1056.14 75.681C1056.39 75.6813 1056.64 75.689 1056.88 75.7042C1057.14 75.7045 1057.39 75.7048 1057.65 75.705L1057.59 76.6871L1052.68 76.3751L1052.72 75.6566Z" fill="#836EC4"/>
<path d="M1070.23 78.1893C1069.43 78.1059 1068.74 77.9204 1068.14 77.6326C1067.54 77.3607 1067.06 77.0687 1066.69 76.7565L1066.69 77.602L1065.69 77.497L1065.98 73.3764L1066.72 73.4539C1066.68 74.1097 1066.8 74.7176 1067.08 75.2777C1067.36 75.822 1067.75 76.2648 1068.25 76.6062C1068.74 76.9477 1069.29 77.15 1069.9 77.2134C1070.31 77.2567 1070.72 77.2356 1071.13 77.1499C1071.55 77.0484 1071.9 76.8765 1072.2 76.6343C1072.5 76.3762 1072.67 76.0323 1072.72 75.6027C1072.77 75.1571 1072.67 74.777 1072.43 74.4622C1072.21 74.1332 1071.89 73.8348 1071.48 73.567C1071.08 73.2992 1070.64 73.044 1070.17 72.8014C1069.71 72.5604 1069.25 72.3115 1068.8 72.0547C1068.34 71.7978 1067.92 71.5045 1067.54 71.1747C1067.17 70.8466 1066.89 70.4632 1066.69 70.0244C1066.5 69.5857 1066.43 69.064 1066.49 68.4593C1066.53 68.1251 1066.63 67.7658 1066.8 67.3813C1066.97 66.9968 1067.22 66.6454 1067.56 66.3269C1067.9 65.9926 1068.35 65.7416 1068.9 65.5738C1069.45 65.3901 1070.13 65.3407 1070.94 65.4257C1071.37 65.4707 1071.84 65.5924 1072.35 65.7906C1072.86 65.9888 1073.34 66.3126 1073.79 66.7621L1073.84 65.8501L1074.84 65.9551L1074.4 70.1322L1073.64 70.0522C1073.67 69.492 1073.59 68.9455 1073.42 68.413C1073.26 67.8645 1072.98 67.4007 1072.58 67.0215C1072.19 66.6265 1071.65 66.3931 1070.96 66.3214C1070.23 66.2447 1069.64 66.3677 1069.19 66.6904C1068.74 67.0131 1068.49 67.4131 1068.44 67.8905C1068.38 68.3838 1068.49 68.8134 1068.76 69.1792C1069.04 69.5308 1069.42 69.8518 1069.89 70.1421C1070.36 70.4325 1070.86 70.7182 1071.39 70.9993C1071.97 71.3173 1072.53 71.6574 1073.07 72.0198C1073.61 72.3821 1074.04 72.8132 1074.36 73.313C1074.68 73.7969 1074.8 74.3969 1074.73 75.113C1074.64 75.9086 1074.37 76.5473 1073.9 77.0291C1073.44 77.5126 1072.89 77.8403 1072.23 78.0124C1071.58 78.202 1070.91 78.2609 1070.23 78.1893Z" fill="#836EC4"/>
<path d="M1083.25 79.8667C1082.88 79.8139 1082.52 79.7045 1082.16 79.5386C1081.79 79.3885 1081.46 79.1389 1081.17 78.7898C1080.9 78.443 1080.71 77.9708 1080.6 77.3732C1080.5 76.7598 1080.51 75.978 1080.65 75.028L1081.7 68.1469L1079.87 67.9054L1080.01 66.8841C1080.43 66.928 1080.87 66.8384 1081.34 66.6154C1081.81 66.3766 1082.25 66.0279 1082.65 65.5694C1083.08 65.1133 1083.39 64.5935 1083.61 64.0102L1084.42 64.1273L1083.93 67.4525L1087.92 68.0312L1087.79 68.9575L1083.79 68.4263L1082.79 75.0223C1082.68 75.7349 1082.65 76.3525 1082.69 76.8753C1082.74 77.3846 1082.89 77.7854 1083.12 78.0778C1083.35 78.3702 1083.68 78.5473 1084.11 78.6094C1084.55 78.6737 1084.98 78.6067 1085.4 78.4085C1085.83 78.2125 1086.23 77.9147 1086.6 77.515L1087.16 78.1305C1086.74 78.6025 1086.33 78.9637 1085.94 79.214C1085.56 79.4666 1085.2 79.6412 1084.87 79.7378C1084.53 79.8502 1084.22 79.9028 1083.95 79.8954C1083.67 79.9038 1083.44 79.8943 1083.25 79.8667Z" fill="#836EC4"/>
<path d="M1104.36 83.7564C1104 83.6794 1103.65 83.5459 1103.29 83.3559C1102.94 83.1816 1102.63 82.9107 1102.36 82.5431C1102.11 82.1788 1101.96 81.6949 1101.89 81.0915C1101.82 80.4724 1101.89 79.6935 1102.09 78.7548L1103.6 71.9592L1101.79 71.5957L1102 70.5865C1102.41 70.658 1102.86 70.5982 1103.34 70.407C1103.83 70.2002 1104.29 69.8817 1104.72 69.4514C1105.18 69.0245 1105.53 68.5271 1105.78 67.9594L1106.58 68.1303L1105.88 71.4158L1109.82 72.2602L1109.62 73.1754L1105.67 72.378L1104.22 78.892C1104.07 79.596 1104 80.2101 1104 80.7342C1104.02 81.246 1104.14 81.6556 1104.35 81.9629C1104.57 82.2701 1104.88 82.469 1105.3 82.5595C1105.74 82.6533 1106.18 82.6152 1106.61 82.4453C1107.05 82.2788 1107.47 82.0083 1107.86 81.6339L1108.38 82.2859C1107.93 82.7285 1107.5 83.0615 1107.09 83.2851C1106.7 83.512 1106.33 83.6623 1105.99 83.7361C1105.64 83.8255 1105.33 83.8574 1105.06 83.8318C1104.78 83.8217 1104.55 83.7966 1104.36 83.7564Z" fill="#836EC4"/>
<path d="M1115.59 86.0979L1114.93 76.383C1114.91 76.0295 1114.88 75.7244 1114.85 75.4678C1114.84 75.2153 1114.83 74.9978 1114.83 74.8154C1114.83 74.633 1114.83 74.4758 1114.83 74.3439L1113.58 74.0858L1113.83 73.135L1118.75 74.4458L1118.56 75.1415C1117.87 74.9714 1117.41 75.108 1117.21 75.5512C1117.03 75.983 1116.97 76.603 1117.02 77.411L1117.22 80.942C1117.24 81.346 1117.26 81.7578 1117.29 82.1772C1117.31 82.5813 1117.33 82.9853 1117.36 83.3893C1117.61 83.009 1117.86 82.6286 1118.11 82.2483C1118.38 81.8567 1118.64 81.4629 1118.9 81.0672L1122.6 75.4721L1123.55 75.7256L1124.09 83.0984C1124.13 83.4714 1124.16 83.8523 1124.19 84.2408C1124.22 84.6294 1124.24 85.0179 1124.27 85.4065C1124.49 85.0993 1124.69 84.7979 1124.89 84.5021C1125.1 84.1949 1125.31 83.8857 1125.51 83.5745L1128.21 79.5764C1128.4 79.2961 1128.59 79.0312 1128.77 78.7818C1128.95 78.5324 1129.14 78.3412 1129.32 78.2082L1127.96 77.9192L1128.21 76.9684L1132.25 78.0442L1132.06 78.7399C1131.66 78.6482 1131.31 78.6137 1131.02 78.6364C1130.75 78.6632 1130.51 78.7312 1130.3 78.8405C1130.08 78.9497 1129.9 79.0982 1129.73 79.2857C1129.56 79.4733 1129.4 79.6939 1129.23 79.9474L1123.46 88.1939L1122.53 87.9466L1122.01 81.0284C1121.99 80.7254 1121.97 80.4301 1121.95 80.1425C1121.93 79.8395 1121.91 79.5442 1121.89 79.2567C1121.87 78.9537 1121.85 78.6584 1121.83 78.3709C1121.66 78.6089 1121.5 78.8548 1121.33 79.1083C1121.17 79.3464 1121 79.5922 1120.84 79.8458C1120.67 80.0838 1120.51 80.3297 1120.34 80.5832L1116.48 86.3329L1115.59 86.0979Z" fill="#836EC4"/>
<path d="M1136.37 92.5309C1135.31 92.1825 1134.42 91.6231 1133.72 90.8528C1133.01 90.0673 1132.55 89.1566 1132.31 88.1206C1132.1 87.0744 1132.18 85.9886 1132.55 84.8634C1132.94 83.6621 1133.54 82.6646 1134.36 81.8709C1135.17 81.0772 1136.11 80.5485 1137.15 80.2848C1138.2 80.0059 1139.27 80.0431 1140.35 80.3965C1141.41 80.7449 1142.29 81.3195 1142.99 82.1202C1143.69 82.9058 1144.16 83.8165 1144.39 84.8525C1144.63 85.8885 1144.56 86.9615 1144.2 88.0715C1143.82 89.2424 1143.21 90.2298 1142.37 91.0338C1141.55 91.8275 1140.62 92.3638 1139.57 92.6427C1138.52 92.9216 1137.45 92.8844 1136.37 92.5309ZM1136.86 91.6783C1137.66 91.9421 1138.38 91.9231 1139 91.6212C1139.62 91.3193 1140.15 90.8358 1140.58 90.1706C1141.03 89.5104 1141.39 88.7774 1141.66 87.9714C1141.88 87.2872 1142.03 86.5957 1142.11 85.897C1142.2 85.1881 1142.2 84.5228 1142.1 83.901C1142.01 83.264 1141.79 82.7136 1141.46 82.25C1141.14 81.7913 1140.67 81.4624 1140.06 81.2633C1139.27 81.0044 1138.55 81.021 1137.9 81.3129C1137.25 81.6048 1136.68 82.0759 1136.2 82.7262C1135.73 83.3814 1135.36 84.1272 1135.09 84.9635C1134.78 85.9063 1134.62 86.8457 1134.6 87.7819C1134.58 88.7028 1134.75 89.5165 1135.11 90.223C1135.47 90.9294 1136.05 91.4145 1136.86 91.6783Z" fill="#836EC4"/>
<path d="M1158.91 100.925C1158.57 100.785 1158.24 100.591 1157.93 100.341C1157.61 100.107 1157.35 99.7848 1157.16 99.376C1156.98 98.9733 1156.91 98.469 1156.95 97.8633C1156.99 97.2427 1157.2 96.4884 1157.56 95.6003L1160.25 89.1798L1158.53 88.5003L1158.92 87.5455C1159.32 87.6887 1159.77 87.7091 1160.27 87.6067C1160.79 87.4895 1161.3 87.2579 1161.81 86.9118C1162.33 86.5718 1162.76 86.1449 1163.11 85.631L1163.86 85.9409L1162.59 89.0492L1166.32 90.5802L1165.96 91.4461L1162.21 89.9595L1159.64 96.1136C1159.36 96.7797 1159.18 97.3708 1159.09 97.887C1159.02 98.3944 1159.06 98.8182 1159.22 99.1583C1159.37 99.4984 1159.65 99.7505 1160.05 99.9145C1160.46 100.085 1160.9 100.124 1161.35 100.033C1161.82 99.9482 1162.28 99.7563 1162.73 99.4572L1163.13 100.192C1162.6 100.547 1162.12 100.798 1161.67 100.945C1161.25 101.099 1160.86 101.182 1160.51 101.193C1160.15 101.22 1159.84 101.196 1159.58 101.123C1159.31 101.064 1159.08 100.998 1158.91 100.925Z" fill="#836EC4"/>
<path d="M1166.18 102.831C1166.63 103.037 1166.99 103.07 1167.27 102.932C1167.55 102.778 1167.79 102.512 1168 102.132C1168.22 101.738 1168.44 101.279 1168.68 100.755L1170.95 95.776C1171.06 95.5431 1171.16 95.3102 1171.27 95.0773C1171.39 94.851 1171.53 94.6241 1171.69 94.3965C1171.42 94.2916 1171.15 94.1866 1170.88 94.0817C1170.63 93.9688 1170.38 93.8599 1170.11 93.7549L1170.52 92.8596L1171.19 93.1684C1171.82 93.4539 1172.27 93.5915 1172.56 93.5813C1172.87 93.5632 1173.13 93.5178 1173.36 93.4453L1173.99 93.7341C1173.92 93.9803 1173.81 94.2814 1173.66 94.6374C1173.52 94.9789 1173.34 95.415 1173.12 95.9457C1173.5 95.6813 1173.96 95.4608 1174.5 95.284C1175.04 95.1073 1175.59 95.0087 1176.17 94.9883C1176.75 94.9745 1177.31 95.0871 1177.83 95.3261C1178.24 95.512 1178.55 95.7839 1178.75 96.1416C1178.96 96.4994 1178.95 96.9185 1178.73 97.3989C1178.68 97.5154 1178.58 97.6444 1178.42 97.7858C1178.28 97.9128 1178.1 98.0052 1177.88 98.0632C1177.66 98.1066 1177.42 98.0686 1177.16 97.9491C1176.85 97.7884 1176.65 97.5485 1176.57 97.2293C1176.49 96.8955 1176.55 96.5784 1176.74 96.2781C1176.38 96.0975 1175.96 96.0195 1175.47 96.0441C1175 96.0752 1174.52 96.1964 1174.01 96.4076C1173.52 96.6043 1173.03 96.8831 1172.55 97.2439L1170.12 102.626C1169.99 102.917 1169.86 103.175 1169.74 103.402C1169.64 103.62 1169.52 103.843 1169.36 104.071C1169.6 104.162 1169.83 104.258 1170.05 104.357C1170.29 104.449 1170.52 104.541 1170.76 104.632L1170.36 105.528L1165.88 103.486L1166.18 102.831Z" fill="#836EC4"/>
<path d="M1177.76 108.261C1178.21 108.482 1178.57 108.528 1178.85 108.399C1179.14 108.256 1179.39 107.998 1179.61 107.626C1179.84 107.239 1180.08 106.788 1180.34 106.272L1182.78 101.376C1182.9 101.147 1183.01 100.935 1183.12 100.742C1183.25 100.534 1183.39 100.295 1183.56 100.022C1183.3 99.9083 1183.03 99.794 1182.77 99.6798C1182.52 99.5727 1182.26 99.4621 1182 99.3479L1182.45 98.4458C1183.08 98.76 1183.58 98.9742 1183.95 99.0883C1184.32 99.2024 1184.61 99.2593 1184.83 99.2591C1185.06 99.2661 1185.25 99.2444 1185.4 99.1942L1186.02 99.5048L1181.69 108.182C1181.55 108.468 1181.41 108.722 1181.29 108.944C1181.18 109.159 1181.04 109.377 1180.88 109.599C1181.12 109.699 1181.34 109.803 1181.56 109.91C1181.79 110.01 1182.03 110.11 1182.26 110.21L1181.82 111.09L1177.44 108.905L1177.76 108.261ZM1186.05 96.8644C1185.75 96.7144 1185.55 96.4606 1185.44 96.103C1185.33 95.7453 1185.37 95.3875 1185.54 95.0296C1185.72 94.6716 1185.99 94.428 1186.34 94.2989C1186.71 94.1626 1187.05 94.1694 1187.35 94.3193C1187.68 94.4836 1187.88 94.7481 1187.97 95.1129C1188.08 95.4706 1188.04 95.8284 1187.86 96.1864C1187.68 96.5443 1187.41 96.7843 1187.05 96.9063C1186.7 97.0355 1186.37 97.0215 1186.05 96.8644Z" fill="#836EC4"/>
<path d="M1190.83 116.324C1189.86 115.794 1189.11 115.089 1188.57 114.21C1188.05 113.324 1187.79 112.344 1187.79 111.27C1187.81 110.182 1188.12 109.07 1188.75 107.933C1189.28 106.951 1190.01 106.151 1190.91 105.533C1191.83 104.923 1192.83 104.577 1193.91 104.496C1195 104.401 1196.08 104.642 1197.13 105.218C1197.72 105.541 1198.21 105.939 1198.61 106.412C1199.03 106.879 1199.33 107.416 1199.51 108.024C1199.69 108.619 1199.73 109.272 1199.64 109.984C1199.55 110.682 1199.28 111.425 1198.85 112.21L1191.38 108.279C1190.79 109.345 1190.39 110.347 1190.17 111.284C1189.97 112.214 1190.01 113.046 1190.28 113.78C1190.56 114.499 1191.11 115.082 1191.92 115.527C1192.36 115.766 1192.84 115.931 1193.37 116.022C1193.92 116.122 1194.46 116.145 1195 116.094C1195.54 116.043 1196.02 115.921 1196.44 115.729L1196.71 116.426C1196.01 116.808 1195.29 117.029 1194.57 117.087C1193.84 117.146 1193.16 117.099 1192.51 116.946C1191.87 116.793 1191.3 116.586 1190.83 116.324ZM1191.92 107.429L1197.29 110.369C1197.57 109.864 1197.76 109.337 1197.85 108.79C1197.98 108.236 1197.95 107.719 1197.77 107.24C1197.61 106.747 1197.25 106.35 1196.7 106.051C1195.89 105.605 1195.07 105.478 1194.26 105.669C1193.46 105.854 1192.68 106.441 1191.92 107.429Z" fill="#836EC4"/>
<path d="M1203.13 123.485C1202.45 123.07 1201.9 122.604 1201.48 122.089C1201.06 121.587 1200.74 121.116 1200.54 120.676L1200.19 121.444L1199.33 120.921L1201.35 117.318L1201.98 117.704C1201.67 118.281 1201.52 118.883 1201.53 119.509C1201.55 120.121 1201.72 120.687 1202.02 121.207C1202.32 121.727 1202.73 122.145 1203.25 122.461C1203.61 122.676 1203.99 122.833 1204.4 122.932C1204.81 123.016 1205.21 123.013 1205.58 122.921C1205.96 122.816 1206.27 122.579 1206.49 122.21C1206.72 121.827 1206.8 121.442 1206.72 121.055C1206.65 120.662 1206.5 120.258 1206.24 119.842C1205.99 119.426 1205.7 119.008 1205.38 118.586C1205.07 118.173 1204.76 117.753 1204.46 117.326C1204.16 116.899 1203.9 116.455 1203.7 115.992C1203.5 115.539 1203.41 115.072 1203.42 114.592C1203.43 114.111 1203.6 113.612 1203.91 113.092C1204.09 112.805 1204.33 112.523 1204.65 112.248C1204.97 111.972 1205.35 111.763 1205.79 111.62C1206.24 111.463 1206.75 111.426 1207.32 111.509C1207.89 111.578 1208.53 111.824 1209.23 112.247C1209.6 112.471 1209.97 112.782 1210.35 113.179C1210.72 113.576 1211.02 114.075 1211.24 114.674L1211.67 113.869L1212.53 114.393L1210.35 117.983L1209.69 117.584C1209.96 117.089 1210.13 116.564 1210.2 116.01C1210.28 115.443 1210.23 114.903 1210.03 114.392C1209.84 113.867 1209.46 113.426 1208.87 113.069C1208.24 112.687 1207.65 112.545 1207.11 112.644C1206.56 112.742 1206.16 112.997 1205.91 113.407C1205.65 113.831 1205.57 114.265 1205.65 114.71C1205.76 115.15 1205.96 115.601 1206.26 116.064C1206.56 116.526 1206.89 116.999 1207.26 117.481C1207.64 118.015 1208 118.562 1208.34 119.12C1208.67 119.679 1208.88 120.252 1208.95 120.84C1209.03 121.414 1208.89 122.009 1208.51 122.624C1208.1 123.308 1207.58 123.768 1206.95 124.003C1206.33 124.247 1205.69 124.305 1205.02 124.178C1204.35 124.073 1203.72 123.842 1203.13 123.485Z" fill="#836EC4"/>
<path d="M1222.51 136.332C1221.72 135.764 1221.14 135.056 1220.78 134.21C1220.43 133.35 1220.34 132.414 1220.49 131.403C1220.66 130.4 1221.1 129.398 1221.82 128.396C1222.58 127.33 1223.47 126.54 1224.49 126.028C1225.5 125.516 1226.55 125.295 1227.64 125.367C1228.75 125.448 1229.78 125.833 1230.74 126.523C1231.17 126.83 1231.55 127.191 1231.89 127.606C1232.24 128.018 1232.49 128.384 1232.64 128.704L1234.55 126.03C1234.7 125.822 1234.84 125.627 1234.97 125.445C1235.12 125.259 1235.3 125.045 1235.52 124.804C1235.27 124.649 1235.03 124.494 1234.79 124.34C1234.55 124.194 1234.32 124.044 1234.07 123.89L1234.66 123.07C1235.23 123.48 1235.69 123.771 1236.04 123.942C1236.39 124.114 1236.67 124.216 1236.89 124.25C1237.11 124.293 1237.3 124.301 1237.46 124.276L1238.02 124.681L1228.96 137.346C1228.81 137.554 1228.65 137.757 1228.49 137.956C1228.33 138.155 1228.14 138.375 1227.93 138.617C1228.17 138.772 1228.41 138.922 1228.64 139.067C1228.88 139.221 1229.13 139.376 1229.37 139.531L1228.78 140.35L1225.99 138.353C1226.09 138.13 1226.19 137.931 1226.27 137.756C1226.38 137.577 1226.48 137.405 1226.58 137.24C1225.93 137.383 1225.25 137.386 1224.54 137.252C1223.84 137.104 1223.16 136.797 1222.51 136.332ZM1223.9 135.878C1224.33 136.186 1224.84 136.37 1225.45 136.43C1226.07 136.499 1226.65 136.454 1227.2 136.295C1227.3 136.129 1227.41 135.962 1227.53 135.793C1227.66 135.611 1227.8 135.416 1227.95 135.208L1231.99 129.601C1231.85 129.144 1231.62 128.728 1231.32 128.354C1231.04 127.976 1230.71 127.647 1230.32 127.368C1229.66 126.902 1228.96 126.685 1228.21 126.718C1227.46 126.751 1226.72 127.017 1225.99 127.516C1225.26 128.016 1224.58 128.73 1223.95 129.66C1223.41 130.472 1223.03 131.269 1222.8 132.052C1222.59 132.844 1222.56 133.572 1222.71 134.234C1222.89 134.893 1223.29 135.441 1223.9 135.878Z" fill="#836EC4"/>
<path d="M1231.89 141.914C1232.28 142.219 1232.63 142.335 1232.93 142.264C1233.24 142.18 1233.54 141.977 1233.83 141.655C1234.13 141.321 1234.45 140.927 1234.81 140.472L1238.17 136.153C1238.32 135.951 1238.48 135.766 1238.63 135.599C1238.79 135.42 1238.98 135.213 1239.2 134.98C1238.96 134.816 1238.73 134.652 1238.49 134.488C1238.26 134.333 1238.03 134.174 1237.8 134.01L1238.42 133.214C1238.97 133.646 1239.42 133.955 1239.76 134.14C1240.1 134.326 1240.38 134.439 1240.59 134.481C1240.81 134.533 1241.01 134.549 1241.16 134.53L1241.71 134.957L1235.76 142.611C1235.56 142.864 1235.38 143.086 1235.21 143.278C1235.06 143.468 1234.89 143.655 1234.68 143.84C1234.89 143.985 1235.09 144.131 1235.28 144.278C1235.5 144.423 1235.71 144.567 1235.92 144.712L1235.32 145.488L1231.45 142.483L1231.89 141.914ZM1242.26 132.374C1242 132.168 1241.85 131.879 1241.81 131.507C1241.78 131.135 1241.88 130.791 1242.13 130.476C1242.37 130.16 1242.68 129.973 1243.05 129.916C1243.44 129.855 1243.77 129.928 1244.03 130.134C1244.32 130.36 1244.48 130.661 1244.49 131.035C1244.52 131.407 1244.42 131.751 1244.17 132.067C1243.93 132.383 1243.61 132.564 1243.23 132.612C1242.86 132.67 1242.54 132.59 1242.26 132.374Z" fill="#836EC4"/>
<path d="M1242.59 151.957C1241.84 151.328 1241.33 150.577 1241.04 149.704C1240.76 148.82 1240.73 147.879 1240.97 146.883C1241.21 145.897 1241.73 144.933 1242.53 143.991C1243.37 142.989 1244.32 142.272 1245.37 141.842C1246.43 141.412 1247.5 141.276 1248.58 141.434C1249.67 141.602 1250.67 142.068 1251.57 142.831C1251.98 143.172 1252.33 143.562 1252.63 144.002C1252.95 144.44 1253.17 144.825 1253.29 145.155L1255.41 142.642C1255.57 142.446 1255.73 142.263 1255.87 142.091C1256.04 141.918 1256.24 141.72 1256.47 141.496C1256.24 141.322 1256.01 141.149 1255.78 140.975C1255.56 140.812 1255.33 140.644 1255.1 140.471L1255.75 139.7C1256.29 140.154 1256.73 140.48 1257.06 140.679C1257.4 140.877 1257.67 141.002 1257.88 141.052C1258.1 141.113 1258.29 141.137 1258.45 141.123L1258.98 141.572L1248.94 153.479C1248.77 153.674 1248.6 153.865 1248.42 154.05C1248.24 154.236 1248.04 154.44 1247.81 154.664C1248.04 154.838 1248.26 155.006 1248.48 155.169C1248.71 155.343 1248.94 155.516 1249.17 155.69L1248.52 156.46L1245.9 154.247C1246.02 154.033 1246.13 153.842 1246.23 153.675C1246.35 153.505 1246.47 153.342 1246.58 153.185C1245.91 153.275 1245.23 153.225 1244.54 153.035C1243.85 152.832 1243.2 152.473 1242.59 151.957ZM1244.01 151.615C1244.41 151.955 1244.91 152.18 1245.51 152.288C1246.12 152.406 1246.71 152.407 1247.27 152.292C1247.38 152.135 1247.5 151.977 1247.64 151.818C1247.78 151.647 1247.94 151.463 1248.1 151.267L1252.57 145.999C1252.47 145.531 1252.28 145.099 1252 144.702C1251.76 144.303 1251.45 143.949 1251.08 143.64C1250.47 143.124 1249.79 142.852 1249.04 142.825C1248.28 142.798 1247.52 143.005 1246.75 143.445C1245.99 143.885 1245.25 144.543 1244.55 145.42C1243.95 146.187 1243.5 146.951 1243.22 147.714C1242.94 148.487 1242.86 149.209 1242.96 149.882C1243.08 150.552 1243.43 151.13 1244.01 151.615Z" fill="#836EC4"/>
<path d="M1250.99 158.729L1251.48 158.203C1251.84 158.541 1252.18 158.687 1252.48 158.643C1252.8 158.586 1253.11 158.411 1253.43 158.117C1253.76 157.811 1254.12 157.447 1254.51 157.026L1258.26 153.04C1258.44 152.852 1258.61 152.665 1258.79 152.478C1258.97 152.301 1259.17 152.13 1259.4 151.964C1259.17 151.779 1258.95 151.594 1258.73 151.41C1258.52 151.236 1258.3 151.057 1258.08 150.872L1258.77 150.135C1259.29 150.615 1259.69 150.951 1259.99 151.145C1260.31 151.349 1260.56 151.476 1260.76 151.525C1260.95 151.575 1261.13 151.597 1261.28 151.592L1261.79 152.066C1261.73 152.159 1261.65 152.258 1261.55 152.364C1261.46 152.48 1261.37 152.608 1261.26 152.747C1261.15 152.887 1261.02 153.039 1260.87 153.203C1261.33 153.22 1261.8 153.283 1262.26 153.391C1262.74 153.51 1263.2 153.675 1263.64 153.886C1264.09 154.108 1264.48 154.377 1264.82 154.694C1265.84 155.643 1266.28 156.657 1266.15 157.737C1266.03 158.806 1265.34 160.013 1264.09 161.359L1261.05 164.625C1260.83 164.859 1260.63 165.064 1260.44 165.24C1260.28 165.416 1260.08 165.587 1259.86 165.753C1260.06 165.916 1260.25 166.079 1260.42 166.243C1260.62 166.405 1260.82 166.568 1261.02 166.731L1260.35 167.451L1256.77 164.113L1257.26 163.586C1257.62 163.924 1257.95 164.071 1258.26 164.026C1258.57 163.97 1258.89 163.795 1259.21 163.501C1259.54 163.195 1259.9 162.831 1260.29 162.41L1262.58 159.952C1263.51 158.934 1264.05 158.015 1264.2 157.195C1264.36 156.385 1264.09 155.665 1263.39 155.033C1262.96 154.652 1262.44 154.376 1261.83 154.204C1261.24 154.044 1260.66 154.002 1260.08 154.079C1260.01 154.184 1259.91 154.295 1259.8 154.412C1259.7 154.529 1259.58 154.652 1259.46 154.78L1255.27 159.241C1255.05 159.475 1254.85 159.68 1254.66 159.857C1254.5 160.032 1254.31 160.203 1254.09 160.369C1254.29 160.532 1254.47 160.695 1254.65 160.859C1254.85 161.022 1255.04 161.185 1255.24 161.348L1254.57 162.067L1250.99 158.729Z" fill="#836EC4"/>
<path d="M1271.29 162.207L1271.17 161.409C1271.46 161.376 1271.81 161.28 1272.24 161.123C1272.67 160.965 1273.1 160.751 1273.53 160.48C1273.99 160.21 1274.36 159.883 1274.66 159.498C1274.54 159.453 1274.44 159.408 1274.35 159.362C1274.27 159.305 1274.2 159.243 1274.13 159.175C1273.92 158.96 1273.81 158.693 1273.81 158.377C1273.82 158.071 1273.95 157.8 1274.18 157.563C1274.5 157.247 1274.84 157.095 1275.19 157.107C1275.55 157.13 1275.85 157.266 1276.1 157.516C1276.5 157.913 1276.64 158.365 1276.54 158.874C1276.45 159.372 1276.19 159.835 1275.76 160.264C1275.47 160.547 1275.07 160.834 1274.55 161.127C1274.04 161.432 1273.49 161.685 1272.9 161.888C1272.34 162.09 1271.8 162.197 1271.29 162.207Z" fill="#836EC4"/>
<path d="M1270.92 178.989C1270.67 178.72 1270.45 178.407 1270.27 178.05C1270.08 177.704 1269.98 177.305 1269.97 176.852C1269.97 176.41 1270.12 175.923 1270.41 175.389C1270.71 174.844 1271.21 174.244 1271.91 173.588L1277.03 168.867L1275.75 167.534L1276.5 166.829C1276.8 167.121 1277.2 167.327 1277.7 167.446C1278.22 167.553 1278.78 167.555 1279.38 167.45C1280 167.357 1280.57 167.15 1281.1 166.828L1281.66 167.424L1279.21 169.72L1281.96 172.663L1281.28 173.303L1278.49 170.392L1273.58 174.917C1273.06 175.409 1272.65 175.87 1272.35 176.302C1272.07 176.735 1271.94 177.137 1271.94 177.511C1271.93 177.885 1272.08 178.229 1272.38 178.544C1272.68 178.871 1273.06 179.088 1273.51 179.193C1273.97 179.31 1274.47 179.327 1275 179.242L1275.06 180.076C1274.43 180.18 1273.89 180.207 1273.43 180.158C1272.98 180.121 1272.59 180.034 1272.26 179.899C1271.93 179.775 1271.66 179.624 1271.45 179.448C1271.23 179.282 1271.05 179.129 1270.92 178.989Z" fill="#836EC4"/>
<path d="M1284.94 194.646L1290.18 186.443C1290.38 186.146 1290.54 185.885 1290.67 185.661C1290.8 185.448 1290.93 185.269 1291.03 185.122C1291.14 184.974 1291.24 184.848 1291.32 184.743L1290.47 183.794L1291.24 183.18L1294.41 187.159L1293.84 187.608C1293.38 187.055 1292.94 186.896 1292.51 187.133C1292.11 187.372 1291.69 187.831 1291.25 188.51L1289.31 191.468C1289.09 191.807 1288.86 192.152 1288.63 192.501C1288.41 192.841 1288.19 193.18 1287.97 193.52C1288.4 193.363 1288.82 193.206 1289.25 193.05C1289.7 192.895 1290.15 192.735 1290.59 192.568L1296.89 190.274L1297.5 191.043L1293.55 197.292C1293.36 197.612 1293.16 197.936 1292.95 198.266C1292.74 198.595 1292.53 198.925 1292.33 199.254C1292.68 199.135 1293.02 199.014 1293.36 198.893C1293.71 198.773 1294.06 198.648 1294.41 198.516L1298.96 196.912C1299.28 196.8 1299.59 196.698 1299.88 196.606C1300.18 196.514 1300.44 196.47 1300.67 196.472L1299.74 195.429L1300.51 194.816L1303.11 198.081L1302.55 198.53C1302.28 198.214 1302.02 197.98 1301.78 197.827C1301.54 197.687 1301.31 197.598 1301.07 197.56C1300.84 197.522 1300.6 197.529 1300.35 197.581C1300.11 197.633 1299.84 197.712 1299.56 197.816L1290.01 201.008L1289.41 200.258L1293.11 194.391C1293.28 194.136 1293.44 193.886 1293.59 193.642C1293.76 193.387 1293.91 193.138 1294.07 192.893C1294.23 192.638 1294.39 192.389 1294.55 192.144C1294.27 192.239 1293.99 192.338 1293.71 192.443C1293.44 192.537 1293.16 192.636 1292.87 192.741C1292.6 192.835 1292.32 192.935 1292.04 193.039L1285.51 195.36L1284.94 194.646Z" fill="#836EC4"/>
<path d="M1297.81 212.181C1297.17 211.267 1296.79 210.291 1296.68 209.251C1296.58 208.201 1296.74 207.191 1297.17 206.219C1297.62 205.252 1298.33 204.425 1299.3 203.74C1300.33 203.008 1301.41 202.566 1302.54 202.413C1303.66 202.26 1304.73 202.389 1305.72 202.799C1306.73 203.201 1307.57 203.864 1308.23 204.791C1308.87 205.704 1309.24 206.69 1309.32 207.748C1309.42 208.798 1309.26 209.808 1308.83 210.78C1308.4 211.751 1307.71 212.575 1306.76 213.251C1305.75 213.964 1304.67 214.395 1303.52 214.544C1302.4 214.697 1301.33 214.573 1300.32 214.172C1299.31 213.771 1298.47 213.107 1297.81 212.181ZM1298.71 211.782C1299.2 212.473 1299.78 212.882 1300.46 213.009C1301.14 213.135 1301.85 213.061 1302.6 212.786C1303.36 212.525 1304.08 212.148 1304.77 211.657C1305.36 211.241 1305.89 210.775 1306.37 210.259C1306.87 209.747 1307.26 209.212 1307.55 208.653C1307.86 208.084 1308.01 207.514 1308.02 206.941C1308.03 206.381 1307.85 205.84 1307.48 205.318C1307 204.64 1306.41 204.224 1305.71 204.072C1305.02 203.919 1304.28 203.96 1303.51 204.196C1302.74 204.445 1302 204.824 1301.28 205.333C1300.47 205.907 1299.78 206.565 1299.21 207.305C1298.65 208.036 1298.3 208.792 1298.17 209.573C1298.04 210.354 1298.22 211.09 1298.71 211.782Z" fill="#836EC4"/>
<path d="M1304.38 219.822C1304.65 220.239 1304.94 220.463 1305.25 220.494C1305.57 220.517 1305.92 220.425 1306.3 220.218C1306.69 220.002 1307.13 219.738 1307.61 219.426L1312.21 216.461C1312.43 216.322 1312.64 216.184 1312.86 216.045C1313.08 215.92 1313.32 215.803 1313.58 215.696C1313.41 215.463 1313.24 215.23 1313.07 214.996C1312.92 214.768 1312.76 214.537 1312.59 214.303L1313.42 213.77L1313.82 214.395C1314.19 214.974 1314.5 215.336 1314.75 215.481C1315.02 215.632 1315.27 215.738 1315.5 215.799L1315.87 216.384C1315.68 216.55 1315.42 216.743 1315.11 216.965C1314.81 217.178 1314.42 217.447 1313.94 217.772C1314.41 217.757 1314.92 217.821 1315.46 217.962C1316.01 218.104 1316.53 218.32 1317.03 218.612C1317.53 218.917 1317.93 219.312 1318.25 219.796C1318.49 220.172 1318.6 220.567 1318.58 220.979C1318.56 221.392 1318.33 221.741 1317.88 222.027C1317.78 222.096 1317.62 222.15 1317.42 222.186C1317.23 222.214 1317.02 222.194 1316.8 222.124C1316.6 222.045 1316.42 221.885 1316.27 221.643C1316.09 221.338 1316.05 221.029 1316.15 220.716C1316.27 220.393 1316.49 220.157 1316.81 220.007C1316.61 219.662 1316.29 219.369 1315.87 219.127C1315.46 218.899 1314.98 218.738 1314.45 218.646C1313.93 218.544 1313.37 218.516 1312.77 218.56L1307.82 221.779C1307.55 221.952 1307.3 222.102 1307.08 222.227C1306.88 222.357 1306.65 222.475 1306.39 222.583C1306.54 222.789 1306.69 222.993 1306.82 223.195C1306.97 223.401 1307.12 223.608 1307.27 223.814L1306.45 224.347L1303.78 220.212L1304.38 219.822Z" fill="#836EC4"/>
<path d="M1310.47 230.778L1311.1 230.414C1311.35 230.842 1311.62 231.071 1311.92 231.101C1312.23 231.137 1312.59 231.06 1312.98 230.869C1313.38 230.67 1313.83 230.425 1314.32 230.133L1324.13 224.41C1324.35 224.281 1324.56 224.16 1324.75 224.046C1324.97 223.939 1325.22 223.818 1325.51 223.683C1325.35 223.443 1325.19 223.203 1325.03 222.962C1324.88 222.736 1324.73 222.502 1324.57 222.262L1325.44 221.752C1325.79 222.359 1326.09 222.812 1326.34 223.111C1326.59 223.41 1326.81 223.618 1326.99 223.735C1327.18 223.866 1327.35 223.951 1327.5 223.991L1327.85 224.592L1318.06 230.335L1318.55 231.163L1322.68 232.134C1323.05 232.231 1323.38 232.324 1323.67 232.412C1323.98 232.492 1324.25 232.592 1324.49 232.712L1323.6 231.341L1324.43 230.855L1326.64 234.623L1326.02 234.987C1325.7 234.542 1325.29 234.19 1324.79 233.93C1324.3 233.675 1323.8 233.468 1323.28 233.309C1322.77 233.164 1322.31 233.045 1321.9 232.95L1319.26 232.331C1319.3 232.68 1319.28 233.008 1319.2 233.314C1319.12 233.621 1319.02 233.939 1318.89 234.27L1317.87 236.845C1317.83 236.962 1317.74 237.173 1317.6 237.476C1317.47 237.793 1317.34 238.15 1317.2 238.546C1317.07 238.957 1316.99 239.35 1316.95 239.725C1316.91 240.115 1316.97 240.427 1317.11 240.661L1316.48 241.025L1315.38 239.142C1315.15 238.755 1315.14 238.272 1315.34 237.692C1315.53 237.112 1315.77 236.484 1316.04 235.806C1316.32 235.156 1316.58 234.568 1316.81 234.044C1317.07 233.525 1317.27 233.059 1317.44 232.646C1317.61 232.247 1317.73 231.91 1317.79 231.633L1317.25 230.809L1314.42 232.472C1314.14 232.634 1313.89 232.773 1313.66 232.888C1313.45 233.01 1313.22 233.119 1312.96 233.215C1313.1 233.428 1313.24 233.644 1313.37 233.865C1313.51 234.078 1313.66 234.291 1313.8 234.503L1312.95 235.001L1310.47 230.778Z" fill="#836EC4"/>
<path fill-rule="evenodd" clip-rule="evenodd" d="M641.304 176.954C647.068 116.933 697.638 70 759.171 70C820.703 70 871.273 116.933 877.037 176.954H919.052L949.61 447.99H572L602.559 176.954H641.304ZM838.575 176.954H679.767C685.328 138.081 718.76 108.199 759.171 108.199C799.582 108.199 833.014 138.081 838.575 176.954Z" fill="#FFF4BD"/>
<path d="M752.757 410.543C739.556 410.543 728.647 408.618 720.029 404.767C711.412 400.734 704.994 395.783 700.777 389.916C696.744 384.049 694.727 378.457 694.727 373.139C694.727 368.922 695.827 365.439 698.027 362.688C700.227 359.755 703.344 358.196 707.378 358.013C710.678 357.83 713.245 358.471 715.079 359.938C717.096 361.222 718.471 362.872 719.204 364.889C719.937 366.906 720.304 368.739 720.304 370.389C720.304 372.223 720.029 374.056 719.479 375.89C718.929 377.723 718.196 379.557 717.279 381.39C719.112 387.624 723.238 392.116 729.655 394.867C736.256 397.617 743.315 398.992 750.832 398.992C763.85 398.992 774.209 395.417 781.91 388.266C789.794 381.115 793.736 370.756 793.736 357.188C793.736 349.12 792.453 341.511 789.886 334.361C787.319 327.027 782.552 321.068 775.584 316.484C768.617 311.9 758.441 309.792 745.057 310.158C743.59 310.158 742.031 310.25 740.381 310.433C738.731 310.433 736.897 310.525 734.881 310.708V298.332C736.897 298.332 738.823 298.332 740.656 298.332C742.49 298.332 744.323 298.332 746.157 298.332C755.874 298.332 763.483 296.132 768.984 291.732C774.484 287.331 778.426 282.106 780.81 276.055C783.194 270.004 784.385 264.412 784.385 259.278C784.385 251.761 783.377 245.069 781.36 239.202C779.527 233.151 776.226 228.475 771.459 225.175C766.692 221.691 760.091 219.95 751.657 219.95C743.406 219.95 736.347 222.15 730.48 226.55C724.613 230.767 720.946 235.168 719.479 239.752C721.129 241.585 722.229 243.419 722.779 245.252C723.513 247.086 723.879 249.011 723.879 251.028C723.879 252.494 723.421 254.236 722.504 256.253C721.771 258.087 720.488 259.645 718.654 260.929C716.82 262.212 714.345 262.854 711.228 262.854C707.378 262.854 704.444 261.479 702.427 258.728C700.411 255.978 699.402 252.678 699.402 248.827C699.402 243.694 701.419 238.101 705.453 232.051C709.486 225.817 715.629 220.5 723.879 216.099C732.314 211.516 742.856 209.224 755.508 209.224C765.408 209.224 774.576 210.782 783.01 213.899C791.444 217.016 798.228 222.15 803.362 229.301C808.496 236.268 811.063 245.527 811.063 257.078C811.063 262.762 809.596 268.538 806.662 274.405C803.912 280.089 799.237 285.406 792.636 290.356C786.219 295.307 777.326 299.524 765.959 303.008C783.377 304.841 797.037 310.433 806.938 319.784C817.022 329.135 822.064 340.961 822.064 355.263C822.064 367.731 818.764 378.09 812.163 386.341C805.746 394.408 797.22 400.459 786.586 404.492C776.135 408.526 764.858 410.543 752.757 410.543Z" fill="#F4B9B8"/>
<path d="M1081.32 343.61C1081.06 339.456 1080.07 335.519 1078.34 331.798C1076.61 328.077 1074.1 325.048 1070.81 322.711C1067.52 320.375 1063.32 319.207 1058.22 319.207C1052.85 319.207 1048.74 320.721 1045.89 323.75C1043.03 326.779 1041.6 330.326 1041.6 334.394C1041.6 338.028 1042.64 341.1 1044.72 343.61C1046.8 346.033 1049.48 348.196 1052.77 350.1C1056.14 351.917 1059.69 353.691 1063.41 355.422C1066.7 356.893 1069.99 358.494 1073.28 360.225C1076.56 361.869 1079.55 363.773 1082.23 365.936C1084.92 368.099 1087.04 370.695 1088.59 373.724C1090.24 376.666 1091.06 380.214 1091.06 384.368C1091.06 389.127 1089.85 393.368 1087.43 397.089C1085.09 400.81 1081.67 403.752 1077.17 405.915C1072.67 407.992 1067.18 409.031 1060.69 409.031C1056.79 409.031 1052.77 408.468 1048.61 407.343C1044.46 406.218 1040.78 404.574 1037.58 402.411L1038.23 407.992H1031.48L1030.7 380.344H1035.76C1036.2 387.959 1038.84 393.757 1043.68 397.738C1048.53 401.632 1054.37 403.579 1061.2 403.579C1064.58 403.579 1067.69 402.973 1070.55 401.762C1073.41 400.464 1075.66 398.603 1077.3 396.18C1079.03 393.757 1079.9 390.815 1079.9 387.354C1079.9 383.459 1078.86 380.214 1076.78 377.618C1074.7 375.022 1072.02 372.772 1068.73 370.868C1065.44 368.965 1061.94 367.147 1058.22 365.417C1054.93 363.946 1051.69 362.388 1048.48 360.744C1045.28 359.1 1042.34 357.239 1039.66 355.162C1037.06 352.999 1034.94 350.446 1033.3 347.504C1031.74 344.562 1030.96 341.014 1030.96 336.86C1030.96 334.61 1031.35 332.187 1032.13 329.591C1032.91 326.995 1034.25 324.529 1036.15 322.192C1038.14 319.769 1040.83 317.822 1044.2 316.351C1047.66 314.793 1052.03 314.014 1057.31 314.014C1060.6 314.014 1064.28 314.49 1068.34 315.442C1072.5 316.308 1076.35 318.038 1079.9 320.634L1079.38 315.053H1086V343.61H1081.32Z" fill="#836EC4"/>
<path d="M1126.43 409.031C1124.44 409.031 1122.4 408.728 1120.33 408.122C1118.25 407.603 1116.3 406.521 1114.49 404.877C1112.76 403.233 1111.37 400.853 1110.33 397.738C1109.29 394.536 1108.77 390.339 1108.77 385.147L1109.03 347.504L1099.04 347.634V342.052C1101.29 341.966 1103.58 341.143 1105.92 339.586C1108.26 337.942 1110.33 335.735 1112.15 332.966C1114.05 330.197 1115.35 327.168 1116.04 323.88H1120.46V342.052H1142.26V347.114L1120.46 347.374L1120.2 383.459C1120.2 387.353 1120.5 390.685 1121.11 393.454C1121.8 396.137 1122.88 398.17 1124.35 399.555C1125.82 400.94 1127.73 401.632 1130.06 401.632C1132.49 401.632 1134.74 400.94 1136.81 399.555C1138.98 398.17 1140.88 396.267 1142.52 393.844L1146.03 396.699C1144.12 399.555 1142.22 401.805 1140.32 403.449C1138.5 405.093 1136.73 406.305 1134.99 407.084C1133.26 407.949 1131.66 408.468 1130.19 408.641C1128.72 408.901 1127.47 409.031 1126.43 409.031Z" fill="#836EC4"/>
<path d="M1184.41 409.031C1178.36 409.031 1172.86 407.646 1167.93 404.877C1163 402.021 1159.06 398.127 1156.12 393.195C1153.26 388.176 1151.83 382.464 1151.83 376.061C1151.83 369.224 1153.26 363.08 1156.12 357.628C1158.97 352.177 1162.87 347.893 1167.8 344.778C1172.73 341.576 1178.27 339.975 1184.41 339.975C1190.47 339.975 1195.97 341.446 1200.9 344.389C1205.83 347.244 1209.77 351.138 1212.71 356.071C1215.65 361.003 1217.12 366.628 1217.12 372.945C1217.12 379.609 1215.65 385.709 1212.71 391.248C1209.86 396.699 1205.96 401.026 1201.03 404.228C1196.1 407.43 1190.56 409.031 1184.41 409.031ZM1185.45 403.839C1190.04 403.839 1193.67 402.541 1196.36 399.944C1199.04 397.348 1200.94 393.973 1202.07 389.82C1203.28 385.666 1203.88 381.296 1203.88 376.71C1203.88 372.816 1203.49 369.008 1202.72 365.287C1202.02 361.479 1200.9 358.061 1199.34 355.032C1197.78 351.917 1195.75 349.451 1193.24 347.634C1190.82 345.816 1187.88 344.908 1184.41 344.908C1179.91 344.908 1176.24 346.206 1173.38 348.802C1170.52 351.398 1168.4 354.773 1167.02 358.927C1165.72 363.08 1165.07 367.537 1165.07 372.296C1165.07 377.662 1165.81 382.767 1167.28 387.613C1168.75 392.373 1171 396.267 1174.03 399.295C1177.06 402.324 1180.87 403.839 1185.45 403.839Z" fill="#836EC4"/>
<path d="M1228.15 403.06C1230.83 403.06 1232.7 402.411 1233.73 401.113C1234.77 399.728 1235.38 397.868 1235.55 395.531C1235.72 393.108 1235.81 390.339 1235.81 387.224V357.628C1235.81 356.244 1235.81 354.859 1235.81 353.475C1235.9 352.09 1236.07 350.662 1236.33 349.191C1234.77 349.278 1233.21 349.364 1231.66 349.451C1230.19 349.451 1228.67 349.494 1227.11 349.581V344.259H1231.14C1234.86 344.259 1237.41 343.913 1238.8 343.22C1240.27 342.441 1241.48 341.619 1242.43 340.754H1246.2C1246.37 342.139 1246.5 343.869 1246.58 345.946C1246.67 347.936 1246.76 350.489 1246.84 353.605C1248.14 351.441 1249.92 349.321 1252.17 347.244C1254.42 345.167 1256.93 343.437 1259.69 342.052C1262.55 340.667 1265.54 339.975 1268.65 339.975C1271.07 339.975 1273.19 340.624 1275.01 341.922C1276.83 343.22 1277.74 345.297 1277.74 348.153C1277.74 348.845 1277.52 349.71 1277.09 350.749C1276.66 351.701 1275.96 352.566 1275.01 353.345C1274.06 354.037 1272.8 354.383 1271.25 354.383C1269.34 354.297 1267.83 353.561 1266.7 352.177C1265.58 350.706 1265.15 349.018 1265.41 347.114C1263.24 347.028 1260.99 347.59 1258.66 348.802C1256.41 350.013 1254.29 351.701 1252.3 353.864C1250.31 355.941 1248.53 358.407 1246.97 361.263L1247.1 393.195C1247.1 394.925 1247.06 396.483 1246.97 397.868C1246.97 399.166 1246.84 400.55 1246.58 402.021C1247.97 401.935 1249.31 401.891 1250.61 401.891C1251.99 401.805 1253.38 401.718 1254.76 401.632V406.954H1228.15V403.06Z" fill="#836EC4"/>
<path d="M1314.83 409.031C1308.86 409.031 1303.45 407.646 1298.61 404.877C1293.85 402.021 1290.08 398.041 1287.31 392.935C1284.55 387.743 1283.16 381.642 1283.16 374.633C1283.16 368.575 1284.5 362.907 1287.18 357.628C1289.95 352.35 1293.8 348.11 1298.74 344.908C1303.67 341.619 1309.38 339.975 1315.87 339.975C1319.51 339.975 1322.88 340.581 1326 341.792C1329.2 342.917 1332.01 344.691 1334.43 347.114C1336.86 349.451 1338.76 352.436 1340.14 356.071C1341.53 359.619 1342.22 363.816 1342.22 368.662L1296.53 369.441C1296.53 376.017 1297.22 381.815 1298.61 386.834C1300.08 391.767 1302.41 395.618 1305.62 398.387C1308.82 401.069 1312.93 402.411 1317.95 402.411C1320.63 402.411 1323.36 401.935 1326.13 400.983C1328.98 400.031 1331.62 398.733 1334.04 397.089C1336.47 395.445 1338.41 393.627 1339.88 391.637L1343 394.233C1340.66 397.868 1337.85 400.767 1334.56 402.93C1331.27 405.093 1327.9 406.651 1324.44 407.603C1320.98 408.555 1317.77 409.031 1314.83 409.031ZM1296.92 363.989H1330.02C1330.02 360.874 1329.54 357.888 1328.59 355.032C1327.73 352.09 1326.26 349.71 1324.18 347.893C1322.1 345.989 1319.38 345.038 1316 345.038C1310.98 345.038 1306.78 346.552 1303.41 349.581C1300.12 352.523 1297.96 357.326 1296.92 363.989Z" fill="#836EC4"/>
<path d="M853.498 403.06C856.181 403.06 858.041 402.411 859.079 401.113C860.118 399.728 860.724 397.868 860.897 395.531C861.07 393.108 861.156 390.339 861.156 387.224V357.628C861.156 356.244 861.156 354.859 861.156 353.475C861.243 352.09 861.416 350.662 861.676 349.191C860.118 349.278 858.56 349.364 857.003 349.451C855.531 349.451 854.017 349.494 852.459 349.581V344.259H856.483C860.204 344.259 862.757 343.913 864.142 343.22C865.613 342.441 866.824 341.619 867.776 340.754H871.541C871.714 342.139 871.843 343.869 871.93 345.946C872.017 347.936 872.103 350.489 872.19 353.605C873.488 351.441 875.262 349.321 877.512 347.244C879.761 345.167 882.271 343.437 885.04 342.052C887.896 340.667 890.881 339.975 893.997 339.975C896.42 339.975 898.54 340.624 900.357 341.922C902.174 343.22 903.083 345.297 903.083 348.153C903.083 348.845 902.867 349.71 902.434 350.749C902.001 351.701 901.309 352.566 900.357 353.345C899.405 354.037 898.15 354.383 896.593 354.383C894.689 354.297 893.175 353.561 892.05 352.177C890.925 350.706 890.492 349.018 890.752 347.114C888.588 347.028 886.338 347.59 884.002 348.802C881.752 350.013 879.632 351.701 877.641 353.864C875.651 355.941 873.877 358.407 872.319 361.263L872.449 393.195C872.449 394.925 872.406 396.483 872.319 397.868C872.319 399.166 872.19 400.55 871.93 402.021C873.315 401.935 874.656 401.891 875.954 401.891C877.338 401.805 878.723 401.718 880.108 401.632V406.954H853.498V403.06Z" fill="#836EC4"/>
<path d="M936.544 409.031C931.265 409.031 926.506 407.733 922.265 405.137C918.025 402.454 914.65 398.646 912.141 393.714C909.718 388.781 908.506 382.983 908.506 376.32C908.506 369.224 909.934 362.95 912.79 357.499C915.645 352.047 919.583 347.763 924.602 344.648C929.707 341.533 935.462 339.975 941.866 339.975C944.721 339.975 947.534 340.365 950.303 341.143C953.159 341.836 955.409 342.658 957.053 343.61V325.827C957.053 324.442 957.053 323.144 957.053 321.933C957.139 320.634 957.269 319.12 957.442 317.389C955.885 317.476 954.327 317.562 952.769 317.649C951.298 317.736 949.784 317.822 948.226 317.909V312.457C952.034 312.457 954.976 312.284 957.053 311.938C959.13 311.591 960.687 311.159 961.726 310.64C962.851 310.12 963.716 309.558 964.322 308.952H968.086V393.195C968.086 394.579 968.043 395.964 967.956 397.348C967.87 398.733 967.74 400.291 967.567 402.021C969.124 401.935 970.639 401.848 972.11 401.762C973.668 401.675 975.225 401.589 976.783 401.502V406.954H958.221C957.961 405.656 957.745 404.488 957.572 403.449C957.485 402.324 957.399 401.242 957.312 400.204C954.889 402.887 951.904 405.05 948.356 406.694C944.808 408.252 940.871 409.031 936.544 409.031ZM941.217 402.67C944.072 402.67 946.928 401.848 949.784 400.204C952.726 398.56 955.149 396.526 957.053 394.103C956.966 393.065 956.923 391.983 956.923 390.858C956.923 389.647 956.923 388.349 956.923 386.964L957.053 349.581C954.976 348.023 952.683 346.898 950.173 346.206C947.75 345.427 945.241 345.038 942.645 345.038C938.318 345.038 934.553 346.292 931.352 348.802C928.15 351.311 925.727 354.816 924.083 359.316C922.438 363.816 921.703 369.094 921.876 375.152C922.049 380.431 922.871 385.147 924.342 389.301C925.9 393.454 928.063 396.743 930.832 399.166C933.688 401.502 937.15 402.67 941.217 402.67Z" fill="#836EC4"/>
</svg>
